ply
format ascii 1.0
comment Created by Blender 2.81 (sub 16) - www.blender.org, source file: ''
element vertex 486
property float x
property float y
property float z
property float nx
property float ny
property float nz
element face 912
property list uchar uint vertex_indices
end_header
-1.106000 3.844000 9.073000 -0.544053 0.585925 0.600543
-0.352300 0.440200 11.070000 -0.206214 -0.020661 0.978271
1.028000 3.760000 9.209000 0.647908 0.451277 0.613605
0.137000 -0.563200 10.730000 0.354076 -0.649709 0.672658
2.010000 4.503000 5.887000 0.860347 0.491012 -0.136662
0.078130 5.232000 6.794000 -0.071078 0.996185 0.050233
-0.726600 3.741000 3.839000 -0.164892 0.687521 -0.707144
-2.789000 3.179000 5.070000 -0.844600 0.466659 -0.262368
-0.918500 2.402000 3.279000 -0.291238 0.009369 -0.956572
1.445000 2.139000 3.394000 0.694723 -0.096316 -0.712760
-3.114000 1.498000 5.285000 -0.959716 -0.170354 -0.223334
-1.317000 -1.269000 8.385000 -0.473067 -0.838710 0.269631
-0.854000 -1.319000 5.036000 -0.000549 -0.894620 -0.446791
-0.935100 5.347000 0.616200 -0.322428 0.921659 0.215674
-0.818400 2.622000 3.235000 -0.177160 0.421033 0.889553
0.487500 5.529000 -0.224100 0.217322 0.971374 -0.095767
3.193000 2.756000 1.633000 0.826441 0.314646 0.466811
3.213000 1.145000 -2.568000 0.889279 0.062105 -0.453108
-2.250000 1.208000 2.767000 -0.589648 -0.132786 0.796655
0.322500 0.833900 3.323000 0.169836 -0.300211 0.938597
1.354000 -1.725000 1.105000 0.332835 -0.820063 0.465468
0.188700 1.133000 -5.785000 0.000183 0.068636 -0.997620
-3.637000 2.696000 0.332500 -0.900906 0.428938 0.066012
-3.706000 0.893600 -0.545200 -0.950377 -0.194800 -0.242500
-0.432600 -0.873700 -4.095000 -0.225318 -0.733970 -0.640706
-2.994000 -0.485800 0.902300 -0.696677 -0.656392 0.289376
0.125200 -2.079000 -1.510000 -0.066286 -0.978332 -0.196020
2.856000 -0.745900 -1.187000 0.797876 -0.591815 -0.114444
2.320000 3.733000 8.130000 0.268532 0.770745 -0.577746
2.031000 3.721000 9.095000 -0.094974 0.810358 0.578143
2.819000 3.567000 8.537000 0.754662 0.656056 -0.004791
1.994000 2.581000 9.711000 -0.124393 0.022553 0.991974
2.640000 2.491000 9.542000 0.573840 -0.100711 0.812708
3.187000 2.528000 8.375000 0.927091 -0.177648 -0.329997
1.628000 2.491000 7.518000 -0.326456 -0.300943 -0.895993
1.620000 3.721000 8.274000 -0.563952 0.774529 -0.286355
0.986800 2.471000 8.914000 -0.960509 -0.224311 0.164464
1.552000 2.106000 9.414000 -0.480514 -0.669027 0.566973
2.657000 1.774000 8.918000 0.381207 -0.918485 0.105045
-1.805000 3.733000 8.130000 0.268532 0.770745 -0.577746
-2.094000 3.721000 9.095000 -0.095004 0.810358 0.578173
-1.306000 3.567000 8.537000 0.754662 0.656056 -0.004791
-2.131000 2.581000 9.711000 -0.124424 0.022553 0.991943
-1.485000 2.491000 9.542000 0.573962 -0.100864 0.812616
-0.938000 2.528000 8.375000 0.927091 -0.177862 -0.329905
-2.497000 2.491000 7.518000 -0.326487 -0.300912 -0.895993
-2.505000 3.721000 8.274000 -0.564013 0.774499 -0.286355
-3.138000 2.471000 8.914000 -0.960509 -0.224281 0.164464
-2.573000 2.106000 9.414000 -0.480605 -0.668935 0.567003
-1.469000 1.774000 8.918000 0.380596 -0.918729 0.104953
1.549000 3.638000 6.803000 0.662770 -0.597797 -0.450911
1.355000 3.638000 6.700000 -0.037507 -0.563311 -0.825373
1.424000 5.126000 6.883000 -0.032411 0.246315 -0.968627
1.615000 5.083000 6.981000 0.829859 0.061220 -0.554552
1.169000 3.638000 6.815000 -0.712363 -0.571795 -0.406903
1.237000 5.115000 6.997000 -0.858699 0.199316 -0.472091
1.176000 3.638000 7.035000 -0.684530 -0.617481 0.387432
1.241000 5.061000 7.210000 -0.872707 -0.040132 0.486557
1.369000 3.638000 7.138000 0.012452 -0.656209 0.754448
1.433000 5.018000 7.308000 0.006989 -0.243965 0.969726
1.556000 3.638000 7.023000 0.682760 -0.645344 0.342509
1.620000 5.029000 7.194000 0.886135 -0.189337 0.422926
1.625000 6.512000 7.421000 0.000000 0.475723 -0.879574
1.811000 6.429000 7.504000 0.839381 0.117374 -0.530686
1.437000 6.490000 7.531000 -0.832850 0.383892 -0.398694
1.434000 6.386000 7.724000 -0.878475 -0.077151 0.471480
1.619000 6.304000 7.807000 -0.027650 -0.470992 0.881680
1.808000 6.326000 7.697000 0.859737 -0.366253 0.355907
1.945000 7.702000 8.276000 0.055696 0.672170 -0.738243
2.121000 7.585000 8.335000 0.852840 0.165441 -0.495254
1.754000 7.672000 8.380000 -0.789972 0.543138 -0.284433
1.740000 7.525000 8.542000 -0.887143 -0.109409 0.448286
1.916000 7.408000 8.601000 -0.080172 -0.666189 0.741417
2.107000 7.439000 8.497000 0.820185 -0.516953 0.245003
2.362000 8.615000 9.391000 0.121830 0.823969 -0.553331
2.526000 8.473000 9.417000 0.868252 0.205481 -0.451521
2.168000 8.578000 9.487000 -0.733512 0.666005 -0.135563
2.138000 8.398000 9.608000 -0.898404 -0.133549 0.418317
2.303000 8.255000 9.635000 -0.146092 -0.816797 0.558061
2.497000 8.293000 9.539000 0.767998 -0.632130 0.102603
2.847000 9.189000 10.690000 0.201910 0.918729 -0.339274
2.998000 9.030000 10.680000 0.888852 0.227607 -0.397595
2.649000 9.148000 10.780000 -0.672353 0.739067 0.041169
2.603000 8.947000 10.850000 -0.910276 -0.154241 0.384136
2.753000 8.788000 10.840000 -0.226234 -0.911130 0.344401
2.950000 8.830000 10.750000 0.707083 -0.704428 -0.061556
3.368000 9.385000 12.080000 0.290719 0.950468 -0.109684
3.503000 9.220000 12.030000 0.911649 0.231117 -0.339732
3.167000 9.342000 12.160000 -0.600696 0.766717 0.226417
3.101000 9.134000 12.180000 -0.924650 -0.158788 0.346080
3.236000 8.970000 12.130000 -0.312052 -0.942686 0.117954
3.438000 9.013000 12.060000 0.636311 -0.733512 -0.238838
3.889000 9.189000 13.480000 0.372875 0.919492 0.124424
4.010000 9.030000 13.390000 0.931211 0.230384 -0.282388
3.684000 9.148000 13.540000 -0.534440 0.739341 0.409528
3.599000 8.947000 13.510000 -0.939482 -0.152959 0.306528
3.719000 8.788000 13.420000 -0.395306 -0.911618 -0.112308
3.925000 8.830000 13.360000 0.577136 -0.701590 -0.417890
4.374000 8.615000 14.770000 0.458876 0.823328 0.333903
4.481000 8.473000 14.650000 0.950987 0.212317 -0.224708
4.165000 8.578000 14.830000 -0.458449 0.668935 0.585070
4.063000 8.398000 14.760000 -0.952300 -0.131779 0.275155
4.170000 8.255000 14.630000 -0.481094 -0.815241 -0.322275
4.379000 8.293000 14.570000 0.514359 -0.631977 -0.579669
4.791000 7.702000 15.890000 0.528642 0.671102 0.519730
4.886000 7.585000 15.730000 0.968810 0.163518 -0.186010
4.579000 7.672000 15.940000 -0.410413 0.541612 0.733604
4.462000 7.525000 15.820000 -0.964660 -0.115024 0.237007
4.556000 7.408000 15.660000 -0.537706 -0.669515 -0.512406
4.769000 7.439000 15.620000 0.463179 -0.513657 -0.722221
5.111000 6.512000 16.740000 0.574236 -0.089633 0.813746
5.196000 6.429000 16.559999 0.890439 -0.425031 0.162511
4.896000 6.490000 16.780001 -0.198126 -0.176794 0.964080
4.768000 6.386000 16.639999 -0.655568 -0.593951 0.466262
4.853000 6.304000 16.459999 -0.333995 -0.925718 -0.177313
5.068000 6.326000 16.420000 0.430525 -0.841060 -0.327433
-1.141000 5.126000 6.883000 0.032502 0.246315 -0.968627
-1.072000 3.638000 6.700000 0.037507 -0.563311 -0.825373
-1.266000 3.638000 6.803000 -0.663869 -0.597552 -0.449629
-1.332000 5.083000 6.981000 -0.829920 0.061037 -0.554521
-0.954100 5.115000 6.997000 0.859157 0.199072 -0.471358
-0.886000 3.638000 6.815000 0.712272 -0.571734 -0.407117
-0.958500 5.061000 7.210000 0.872463 -0.040284 0.486984
-0.892800 3.638000 7.035000 0.684835 -0.617237 0.387219
-1.150000 5.018000 7.308000 -0.006439 -0.243873 0.969756
-1.086000 3.638000 7.138000 -0.013428 -0.656178 0.754479
-1.337000 5.029000 7.194000 -0.886166 -0.189550 0.422773
-1.272000 3.638000 7.023000 -0.681875 -0.645985 0.343059
-1.342000 6.512000 7.421000 0.000000 0.475723 -0.879574
-1.528000 6.429000 7.504000 -0.839381 0.117374 -0.530686
-1.154000 6.490000 7.531000 0.832850 0.383862 -0.398694
-1.151000 6.386000 7.724000 0.878475 -0.077212 0.471480
-1.336000 6.304000 7.807000 0.027711 -0.471053 0.881649
-1.525000 6.326000 7.697000 -0.859737 -0.366253 0.355907
-1.662000 7.702000 8.276000 -0.055696 0.672170 -0.738243
-1.838000 7.585000 8.335000 -0.852840 0.165441 -0.495254
-1.471000 7.672000 8.380000 0.789972 0.543138 -0.284433
-1.457000 7.525000 8.542000 0.887143 -0.109409 0.448286
-1.633000 7.408000 8.601000 0.080172 -0.666189 0.741417
-1.824000 7.439000 8.497000 -0.820185 -0.516953 0.245003
-2.079000 8.615000 9.391000 -0.121830 0.823969 -0.553331
-2.243000 8.473000 9.417000 -0.868252 0.205481 -0.451521
-1.885000 8.578000 9.487000 0.733512 0.666005 -0.135563
-1.855000 8.398000 9.608000 0.898404 -0.133549 0.418317
-2.020000 8.255000 9.635000 0.146092 -0.816797 0.558061
-2.214000 8.293000 9.539000 -0.767998 -0.632130 0.102603
-2.564000 9.189000 10.690000 -0.201910 0.918729 -0.339274
-2.715000 9.030000 10.680000 -0.888852 0.227607 -0.397595
-2.366000 9.148000 10.780000 0.672353 0.739067 0.041169
-2.320000 8.947000 10.850000 0.910276 -0.154241 0.384136
-2.470000 8.788000 10.840000 0.226234 -0.911130 0.344401
-2.667000 8.830000 10.750000 -0.707083 -0.704428 -0.061556
-3.085000 9.385000 12.080000 -0.290719 0.950468 -0.109714
-3.220000 9.220000 12.030000 -0.911740 0.231025 -0.339579
-2.884000 9.342000 12.160000 0.600726 0.766686 0.226386
-2.818000 9.134000 12.180000 0.924589 -0.158879 0.346171
-2.953000 8.970000 12.130000 0.312082 -0.942656 0.118137
-3.155000 9.013000 12.060000 -0.636433 -0.733451 -0.238685
-3.606000 9.189000 13.480000 -0.374493 0.918882 0.123905
-3.726000 9.030000 13.390000 -0.931211 0.230384 -0.282418
-3.400000 9.148000 13.540000 0.535783 0.738334 0.409528
-3.316000 8.947000 13.510000 0.939329 -0.156285 0.305246
-3.437000 8.788000 13.420000 0.393536 -0.912259 -0.113498
-3.642000 8.830000 13.360000 -0.578722 -0.700064 -0.418226
-4.091000 8.615000 14.770000 -0.458907 0.823389 0.333750
-4.198000 8.473000 14.650000 -0.950926 0.212470 -0.224830
-3.882000 8.578000 14.830000 0.458327 0.668905 0.585192
-3.780000 8.398000 14.760000 0.952269 -0.131932 0.275246
-3.887000 8.255000 14.630000 0.481124 -0.815241 -0.322275
-4.096000 8.293000 14.570000 -0.514359 -0.631977 -0.579638
-4.508000 7.702000 15.890000 -0.528642 0.671102 0.519730
-4.603000 7.585000 15.730000 -0.968810 0.162328 -0.187109
-4.296000 7.672000 15.940000 0.410352 0.541734 0.733543
-4.179000 7.525000 15.820000 0.964721 -0.114933 0.236824
-4.273000 7.408000 15.660000 0.537797 -0.669454 -0.512406
-4.485000 7.439000 15.620000 -0.461379 -0.514878 -0.722465
-4.828000 6.512000 16.740000 -0.574206 -0.089755 0.813746
-4.913000 6.429000 16.559999 -0.890255 -0.425916 0.161321
-4.613000 6.490000 16.780001 0.196753 -0.177068 0.964324
-4.484000 6.386000 16.639999 0.656575 -0.593158 0.465835
-4.570000 6.304000 16.459999 0.332682 -0.926145 -0.177648
-4.784000 6.326000 16.420000 -0.429090 -0.841578 -0.327982
-1.519000 -2.270000 2.989000 0.519333 -0.831874 0.195502
-1.987000 -1.082000 3.408000 0.814386 0.484024 0.320109
-2.709000 -1.989000 3.536000 -0.147099 -0.847224 0.510422
-1.513000 -2.259000 2.974000 0.807031 -0.351726 -0.474258
-2.524000 -1.536000 2.471000 0.090854 -0.159001 -0.983062
-4.318000 -0.393300 4.187000 -0.124210 -0.356090 0.926145
-4.692000 -0.620400 3.123000 -0.627949 -0.689993 -0.359935
-6.274000 0.922700 4.173000 -0.696432 -0.434675 0.570971
-5.533000 1.852000 4.043000 0.437056 0.809046 0.392895
-6.084000 1.387000 3.082000 -0.348094 0.187933 -0.918393
-6.844000 2.279000 4.015000 0.062838 0.942289 0.328776
-6.830000 1.957000 4.012000 0.234840 -0.594348 0.769127
-6.886000 2.118000 3.737000 -0.053560 0.476272 -0.877651
-7.536000 1.346000 4.658000 0.143834 0.304697 0.941496
-7.229000 0.968300 4.298000 0.855251 -0.502701 0.125736
-8.053000 1.724000 3.821000 -0.576281 0.798059 -0.175878
-7.747000 1.346000 3.460000 0.162328 -0.011902 -0.986663
-9.085000 -0.198200 5.078000 -0.044435 0.067019 0.996734
-9.347000 -0.198200 3.597000 -0.138249 -0.067629 -0.988067
-8.702000 -0.739300 4.247000 0.623157 -0.772240 -0.123569
-10.910000 -1.528000 5.154000 -0.380566 0.334819 0.861995
-10.390000 -2.110000 4.847000 0.543016 -0.675069 0.499374
-11.080000 -1.528000 4.148000 -0.721213 0.283059 -0.632191
-10.490000 -2.110000 4.260000 0.344676 -0.710776 -0.613147
-11.580000 -2.509000 4.768000 -0.423933 0.220771 0.878353
-11.570000 -2.523000 4.760000 0.635762 -0.506607 0.582324
-11.590000 -2.509000 4.742000 -0.766381 0.355815 -0.534776
-11.570000 -2.523000 4.744000 0.398938 -0.586261 -0.705039
-12.390000 -3.546000 5.269000 -0.219245 0.532914 0.817255
-11.930000 -3.852000 5.034000 0.907407 -0.242164 0.343364
-12.520000 -3.546000 4.548000 -0.435560 0.501511 -0.747490
-12.870000 -4.803000 5.622000 0.196081 0.101596 0.975280
-12.580000 -5.090000 4.606000 0.671804 -0.343577 -0.656209
-13.490000 -4.516000 4.767000 -0.761010 0.531877 -0.371410
-13.110000 -6.264000 5.380000 0.750725 -0.498398 0.433515
-14.780000 -6.803000 5.643000 -0.687979 0.315317 0.653615
-14.490000 -7.092000 4.622000 -0.289499 -0.087741 -0.953124
-15.350000 -8.042000 5.637000 -0.728538 0.271676 0.628803
-14.730000 -8.430000 5.528000 0.685720 -0.649495 0.328471
-15.150000 -8.236000 4.950000 -0.249428 -0.231513 -0.940306
-15.780000 -9.378000 5.503000 -0.638081 -0.378002 0.670766
-15.770000 -9.385000 5.497000 0.181829 -0.923551 0.337565
-15.780000 -9.375000 5.495000 -0.975616 0.217109 -0.031465
-15.780000 -9.378000 5.486000 -0.839747 -0.304697 -0.449355
-15.770000 -9.383000 5.484000 0.119968 -0.821619 -0.557237
-1.522000 -2.262000 -1.240000 0.833125 -0.195471 -0.517350
-1.519000 -2.258000 -1.231000 0.997162 0.033052 -0.067263
-1.522000 -2.262000 -1.222000 0.761773 -0.285562 0.581469
-1.529000 -2.270000 -1.222000 0.206091 -0.834468 0.511032
-1.529000 -2.270000 -1.240000 0.250954 -0.877346 -0.408979
-2.061000 -1.082000 -0.890600 0.782952 0.425489 0.453780
-2.428000 -1.536000 -1.907000 0.320200 -0.203009 -0.925321
-3.082000 -0.496300 -0.552200 0.352519 0.295450 0.887906
-3.082000 -0.496300 -1.910000 0.398022 0.457320 -0.795221
-3.759000 -1.333000 -1.628000 -0.480972 -0.788873 -0.382488
-5.567000 0.125700 -0.832300 -0.549272 -0.566301 0.614460
-5.665000 1.852000 -0.881800 0.341136 0.801447 0.491165
-6.417000 0.922700 -0.881800 -0.717704 -0.484024 0.500595
-6.041000 1.387000 -1.924000 -0.198401 0.171270 -0.965026
-6.950000 2.279000 -1.137000 -0.080325 0.932188 0.352855
-6.937000 1.957000 -1.326000 0.009644 -0.917356 -0.397870
-6.943000 2.118000 -1.418000 -0.064211 0.584521 -0.808802
-7.378000 0.968300 -0.924600 0.773980 -0.391797 0.497391
-8.108000 1.724000 -0.924600 -0.341014 0.822840 0.454543
-7.743000 1.346000 -1.840000 0.176427 0.213752 -0.960814
-8.797000 0.837100 -0.605200 -0.274514 0.328715 0.903623
-9.793000 0.269000 -1.611000 -0.536973 0.574419 -0.617756
-8.891000 -0.665400 -1.611000 0.543626 -0.574541 -0.611835
-10.590000 -2.110000 -0.932600 0.334971 -0.814203 0.474166
-10.570000 -0.523000 -0.867900 -0.696127 0.458510 0.552385
-11.300000 -1.375000 -0.932600 -0.771844 0.415693 0.481033
-10.940000 -1.742000 -1.823000 -0.230811 -0.236549 -0.943785
-11.750000 -2.506000 -1.223000 -0.759575 0.449385 0.470138
-11.730000 -2.523000 -1.223000 0.584887 -0.606128 0.538957
-11.740000 -2.514000 -1.247000 -0.145940 -0.017518 -0.989135
-12.760000 -3.466000 -1.017000 -0.530168 0.701315 0.476455
-12.140000 -3.852000 -1.017000 0.799188 -0.179113 0.573748
-12.450000 -3.659000 -1.656000 0.044465 0.288522 -0.956420
-13.160000 -4.803000 -0.600100 0.031312 0.100467 0.994415
-12.700000 -5.090000 -1.550000 0.771355 -0.361583 -0.523667
-13.620000 -4.516000 -1.550000 -0.696127 0.513413 -0.501755
-13.360000 -6.264000 -0.880900 0.662923 -0.498550 0.558489
-15.050000 -6.803000 -0.911400 -0.792352 0.315867 0.521897
-14.580000 -7.092000 -1.866000 -0.114566 -0.090487 -0.989257
-15.600000 -8.042000 -1.016000 -0.824396 0.270547 0.497147
-14.980000 -8.430000 -1.016000 0.618183 -0.646290 0.447310
-15.290000 -8.236000 -1.658000 -0.081606 -0.236244 -0.968230
-16.010000 -9.378000 -1.222000 -0.691427 -0.439528 0.573351
-15.990000 -9.385000 -1.226000 0.348918 -0.895047 0.277627
-16.010000 -9.375000 -1.231000 -0.971435 0.230323 -0.057039
-16.010000 -9.378000 -1.240000 -0.795099 -0.345042 -0.498703
-16.000000 -9.383000 -1.240000 -0.028077 -0.849788 -0.526322
-1.522000 -2.270000 -4.918000 0.470595 -0.779168 0.413984
-2.105000 -1.082000 -4.684000 0.655934 0.483505 0.579608
-2.827000 -1.989000 -4.812000 -0.313089 -0.847407 0.428785
-1.513000 -2.262000 -4.935000 0.843532 -0.457564 -0.281137
-2.290000 -1.536000 -5.749000 0.421674 -0.159185 -0.892636
-4.562000 -0.393300 -4.750000 -0.433515 -0.355876 0.827876
-4.550000 -0.620400 -5.878000 -0.467025 -0.690085 -0.552812
-6.395000 0.922700 -5.432000 -0.849696 -0.434309 0.298868
-5.655000 1.852000 -5.302000 0.276589 0.809198 0.518296
-5.844000 1.387000 -6.393000 -0.013672 0.187658 -0.982116
-6.877000 2.279000 -5.776000 -0.053133 0.942564 0.329691
-6.863000 1.957000 -5.773000 -0.039003 -0.588794 0.807306
-6.821000 2.118000 -6.051000 0.250069 0.475875 -0.843196
-7.747000 1.346000 -5.408000 -0.186987 0.304880 0.933836
-7.335000 0.968300 -5.641000 0.760613 -0.502609 0.410871
-7.947000 1.724000 -6.372000 -0.480636 0.798120 -0.363231
-7.536000 1.346000 -6.605000 0.490188 -0.012452 -0.871487
-9.347000 -0.198200 -5.543000 -0.381695 0.067354 0.921812
-9.085000 -0.198200 -7.025000 0.210089 -0.068606 -0.975249
-8.702000 -0.739300 -6.193000 0.628315 -0.771813 0.097354
-11.080000 -1.528000 -6.095000 -0.650136 0.331858 0.683493
-10.490000 -2.110000 -6.206000 0.341350 -0.676290 0.652730
-10.910000 -1.528000 -7.101000 -0.467757 0.282723 -0.837397
-10.390000 -2.110000 -6.794000 0.530747 -0.710135 -0.462569
-11.590000 -2.509000 -6.689000 -0.728263 0.425306 0.537339
-11.570000 -2.523000 -6.691000 0.386761 -0.605853 0.695212
-11.580000 -2.509000 -6.715000 -0.387371 0.296915 -0.872768
-11.570000 -2.523000 -6.707000 0.624317 -0.522935 -0.580248
-12.520000 -3.546000 -6.495000 -0.486526 0.533769 0.691610
-12.010000 -3.852000 -6.559000 0.733451 -0.242012 0.635151
-12.390000 -3.546000 -7.217000 -0.147984 0.498215 -0.854305
-13.090000 -4.803000 -6.326000 -0.148808 0.100711 0.983703
-12.470000 -5.090000 -7.180000 0.856166 -0.344981 -0.384564
-13.380000 -4.516000 -7.341000 -0.588519 0.531083 -0.609546
-13.240000 -6.264000 -6.637000 0.553453 -0.495529 0.669393
-14.890000 -6.803000 -6.960000 -0.870205 0.315287 0.378491
-14.270000 -7.092000 -7.819000 0.052431 -0.085482 -0.994934
-15.420000 -8.042000 -7.159000 -0.898648 0.270608 0.345195
-14.800000 -8.430000 -7.051000 0.534715 -0.651662 0.537919
-15.000000 -8.236000 -7.738000 0.088290 -0.235572 -0.967803
-15.780000 -9.378000 -7.432000 -0.753899 -0.368816 0.543657
-15.770000 -9.385000 -7.434000 0.132389 -0.914182 0.382977
-15.780000 -9.375000 -7.442000 -0.967223 0.238075 -0.088229
-15.780000 -9.378000 -7.450000 -0.741722 -0.286660 -0.606311
-15.770000 -9.383000 -7.448000 0.211005 -0.827693 -0.519974
1.522000 -2.270000 -4.918000 -0.285531 -0.848933 0.444685
1.511000 -2.258000 -4.926000 -0.967956 0.021973 0.250069
1.513000 -2.262000 -4.935000 -0.667989 -0.482955 -0.566118
2.828000 -1.989000 -4.812000 0.313150 -0.847407 0.428663
2.105000 -1.082000 -4.684000 -0.655843 0.483596 0.579638
2.290000 -1.536000 -5.749000 -0.421613 -0.159062 -0.892697
4.550000 -0.620400 -5.878000 0.467055 -0.690023 -0.552873
4.562000 -0.393300 -4.750000 0.433576 -0.355785 0.827876
6.395000 0.922700 -5.432000 0.849696 -0.434309 0.298868
5.655000 1.852000 -5.302000 -0.276589 0.809198 0.518296
5.844000 1.387000 -6.393000 0.013672 0.187658 -0.982116
6.877000 2.279000 -5.776000 0.053133 0.942564 0.329691
6.863000 1.957000 -5.773000 0.039003 -0.588794 0.807306
6.821000 2.118000 -6.051000 -0.250069 0.475875 -0.843196
7.335000 0.968300 -5.641000 -0.760613 -0.502609 0.410871
7.747000 1.346000 -5.408000 0.186987 0.304880 0.933836
7.947000 1.724000 -6.372000 0.480636 0.798151 -0.363201
7.536000 1.346000 -6.605000 -0.490188 -0.012482 -0.871487
9.347000 -0.198200 -5.543000 0.381695 0.067354 0.921812
9.086000 -0.198200 -7.025000 -0.209601 -0.068270 -0.975372
8.702000 -0.739300 -6.193000 -0.628315 -0.771844 0.097110
11.080000 -1.528000 -6.095000 0.650136 0.331858 0.683493
10.490000 -2.110000 -6.206000 -0.341441 -0.676260 0.652730
10.910000 -1.528000 -7.101000 0.467727 0.282754 -0.837397
10.390000 -2.110000 -6.794000 -0.530900 -0.710044 -0.462539
11.590000 -2.509000 -6.689000 0.728233 0.425306 0.537339
11.570000 -2.523000 -6.691000 -0.386792 -0.605853 0.695181
11.580000 -2.509000 -6.715000 0.387371 0.296915 -0.872768
11.570000 -2.523000 -6.707000 -0.624317 -0.522935 -0.580248
12.520000 -3.546000 -6.495000 0.486526 0.533769 0.691610
12.010000 -3.852000 -6.559000 -0.733482 -0.242012 0.635151
12.390000 -3.546000 -7.217000 0.147984 0.498215 -0.854305
12.470000 -5.090000 -7.180000 -0.856166 -0.344981 -0.384564
13.090000 -4.803000 -6.326000 0.148808 0.100711 0.983703
13.380000 -4.516000 -7.341000 0.588519 0.531083 -0.609546
13.240000 -6.264000 -6.637000 -0.553453 -0.495529 0.669393
14.890000 -6.803000 -6.960000 0.870205 0.315287 0.378491
14.270000 -7.092000 -7.819000 -0.052431 -0.085482 -0.994934
15.420000 -8.042000 -7.159000 0.898648 0.270608 0.345195
14.800000 -8.430000 -7.051000 -0.534715 -0.651662 0.537919
15.000000 -8.236000 -7.738000 -0.088290 -0.235572 -0.967803
15.780000 -9.378000 -7.432000 0.753868 -0.368847 0.543657
15.770000 -9.385000 -7.434000 -0.132420 -0.914182 0.382977
15.780000 -9.375000 -7.442000 0.967223 0.238044 -0.088229
15.780000 -9.378000 -7.450000 0.741722 -0.286660 -0.606311
15.770000 -9.383000 -7.448000 -0.211005 -0.827662 -0.519974
-0.959200 -0.954700 10.350000 -0.926023 -0.261849 -0.271767
0.007813 0.392800 11.600000 0.462325 0.227851 0.856929
-0.732400 1.062000 10.630000 -0.914884 0.403333 0.015961
0.007813 -1.855000 11.370000 0.264595 -0.449080 0.853389
0.007813 -2.459000 10.630000 0.206305 -0.966918 -0.149998
0.007813 0.392800 9.662000 0.435194 0.311594 -0.844661
-0.392800 1.509000 10.630000 0.095614 0.995270 0.016572
0.732700 1.062000 10.630000 0.914884 0.403333 0.015961
-0.007813 0.392800 11.600000 -0.462478 0.227851 0.856807
0.959500 -0.954700 10.350000 0.926023 -0.261879 -0.271737
-0.007813 -1.855000 11.370000 -0.264657 -0.449049 0.853389
-0.007813 -2.459000 10.630000 -0.206366 -0.966887 -0.149998
-0.007813 0.392800 9.662000 -0.435316 0.311655 -0.844600
0.393100 1.509000 10.630000 -0.095523 0.995270 0.016572
1.513000 -2.262000 2.988000 -0.830836 -0.307566 0.463790
1.511000 -2.258000 2.979000 -0.976440 0.002686 -0.215613
1.516000 -2.262000 2.970000 -0.742363 -0.173254 -0.647175
1.522000 -2.270000 2.971000 -0.222816 -0.865749 -0.448103
1.520000 -2.270000 2.989000 -0.279427 -0.839198 0.466475
1.987000 -1.082000 3.408000 -0.849879 0.425520 0.310739
2.524000 -1.536000 2.471000 -0.154729 -0.203131 -0.966826
2.933000 -0.496300 3.919000 -0.501328 0.294992 0.813379
3.168000 -0.496300 2.581000 -0.254006 0.457167 -0.852321
3.786000 -1.333000 2.977000 0.540147 -0.788934 -0.292856
5.429000 0.125700 4.074000 0.434919 -0.566454 0.699942
5.534000 1.852000 4.042000 -0.421369 0.801599 0.424055
6.274000 0.922700 4.173000 0.619709 -0.484115 0.617695
6.085000 1.387000 3.082000 0.363323 0.171239 -0.915769
6.863000 1.957000 3.827000 0.062960 -0.919218 -0.388623
6.844000 2.279000 4.015000 0.017548 0.932066 0.361827
6.886000 2.118000 3.737000 0.203345 0.583880 -0.785913
7.229000 0.968300 4.298000 -0.848445 -0.392041 0.355510
7.947000 1.724000 4.425000 0.256783 0.822657 0.507187
7.747000 1.346000 3.460000 -0.006806 0.213813 -0.976836
8.570000 0.837100 4.859000 0.112888 0.328654 0.937651
9.726000 0.269000 4.042000 0.634877 0.574786 -0.516251
8.838000 -0.665400 3.885000 -0.428785 -0.573962 -0.697592
10.390000 -2.110000 4.847000 -0.411512 -0.815577 0.406751
10.370000 -0.523000 4.909000 0.592395 0.459059 0.662038
11.090000 -1.375000 4.970000 0.677786 0.413190 0.608142
10.890000 -1.742000 4.032000 0.390240 -0.238990 -0.889126
11.590000 -2.506000 4.763000 0.681661 0.511155 0.523453
11.570000 -2.523000 4.760000 -0.680166 -0.555925 0.477737
11.580000 -2.514000 4.739000 0.222114 -0.049867 -0.973724
12.550000 -3.466000 5.142000 0.440718 0.702841 0.558336
11.930000 -3.852000 5.034000 -0.888302 -0.179144 0.422803
12.350000 -3.659000 4.459000 0.119633 0.286203 -0.950652
12.580000 -5.090000 4.606000 -0.668020 -0.361614 -0.650319
12.870000 -4.803000 5.622000 -0.201941 0.100284 0.974242
13.490000 -4.516000 4.767000 0.773003 0.513718 -0.372173
13.110000 -6.264000 5.380000 -0.750725 -0.498398 0.433515
14.780000 -6.803000 5.643000 0.687979 0.315317 0.653615
14.490000 -7.092000 4.622000 0.289499 -0.087741 -0.953124
15.350000 -8.042000 5.637000 0.728538 0.271676 0.628803
14.730000 -8.430000 5.528000 -0.685720 -0.649495 0.328471
15.150000 -8.236000 4.950000 0.249428 -0.231513 -0.940306
15.780000 -9.378000 5.503000 0.638081 -0.377972 0.670766
15.770000 -9.385000 5.497000 -0.181829 -0.923551 0.337565
15.780000 -9.375000 5.495000 0.975616 0.217109 -0.031465
15.780000 -9.378000 5.486000 0.839778 -0.304697 -0.449355
15.770000 -9.383000 5.484000 -0.119968 -0.821619 -0.557237
1.529000 -2.270000 -1.222000 -0.329783 -0.862300 0.384259
1.519000 -2.258000 -1.231000 -0.991882 0.026124 0.124241
1.522000 -2.262000 -1.240000 -0.591266 -0.461470 -0.661367
2.795000 -1.989000 -0.890600 0.233528 -0.847377 0.476852
2.062000 -1.082000 -0.890600 -0.746544 0.483657 0.456832
2.428000 -1.536000 -1.907000 -0.260689 -0.159062 -0.952208
4.677000 -0.620400 -1.642000 0.555742 -0.689993 -0.463698
4.493000 -0.393300 -0.528300 0.283090 -0.355968 0.890561
6.417000 0.922700 -0.881800 0.784814 -0.434431 0.441939
5.665000 1.852000 -0.881800 -0.362255 0.809137 0.462600
6.041000 1.387000 -1.924000 0.183721 0.187780 -0.964843
6.951000 2.279000 -1.137000 -0.004822 0.942442 0.334239
6.937000 1.957000 -1.137000 -0.101474 -0.591418 0.799921
6.944000 2.118000 -1.418000 -0.099673 0.476272 -0.873592
7.379000 0.968300 -0.924600 -0.820399 -0.502762 0.272286
7.743000 1.346000 -0.623000 0.020997 0.304239 0.952361
8.108000 1.724000 -1.538000 0.536821 0.798059 -0.273598
7.743000 1.346000 -1.840000 -0.331736 -0.012268 -0.943266
9.343000 -0.198200 -0.479200 0.216407 0.067476 0.973937
9.343000 -0.198200 -1.983000 -0.036409 -0.068545 -0.996979
8.820000 -0.739300 -1.231000 -0.635060 -0.772301 -0.013520
11.150000 -1.528000 -0.720700 0.522691 0.333384 0.784600
10.590000 -2.110000 -0.932600 -0.448286 -0.675802 0.585040
11.150000 -1.528000 -1.742000 0.603076 0.283090 -0.745720
10.590000 -2.110000 -1.530000 -0.443525 -0.710349 -0.546464
11.750000 -2.509000 -1.218000 0.605548 0.363109 0.708121
11.730000 -2.523000 -1.223000 -0.491470 -0.550798 0.674551
11.750000 -2.509000 -1.245000 0.591021 0.354289 -0.724631
11.730000 -2.523000 -1.239000 -0.499588 -0.557237 -0.663198
12.630000 -3.546000 -0.864700 0.358898 0.532029 0.766839
12.140000 -3.852000 -1.017000 -0.831874 -0.242378 0.499191
12.630000 -3.546000 -1.598000 0.298318 0.499008 -0.813593
12.700000 -5.090000 -1.550000 -0.776055 -0.343608 -0.528794
13.160000 -4.803000 -0.600100 -0.025422 0.101199 0.994537
13.620000 -4.516000 -1.550000 0.684713 0.530869 -0.499313
13.360000 -6.264000 -0.880400 -0.662831 -0.498367 0.558763
15.050000 -6.803000 -0.911100 0.792322 0.315744 0.521989
14.580000 -7.092000 -1.866000 0.114628 -0.090457 -0.989257
15.600000 -8.042000 -1.016000 0.824427 0.270516 0.497085
14.980000 -8.430000 -1.016000 -0.618152 -0.646382 0.447279
15.290000 -8.236000 -1.658000 0.081606 -0.236213 -0.968261
16.010000 -9.378000 -1.222000 0.691397 -0.439528 0.573351
15.990000 -9.385000 -1.226000 -0.348918 -0.895047 0.277627
16.010000 -9.375000 -1.231000 0.971435 0.230323 -0.057039
16.010000 -9.378000 -1.240000 0.795099 -0.345042 -0.498703
16.000000 -9.383000 -1.240000 0.028077 -0.849788 -0.526322
-0.793200 4.462000 -7.734000 -0.238319 0.873135 0.425184
-0.384300 1.974000 -5.495000 -0.228095 0.055177 0.972045
1.950000 3.241000 -7.348000 0.651234 0.564653 0.506974
1.167000 0.642800 -6.109000 0.381726 -0.431898 0.817133
3.808000 0.187100 -9.572000 0.881069 -0.349071 0.319102
3.644000 1.688000 -11.880000 0.806787 0.495407 -0.321879
0.076170 4.961000 -10.120000 -0.040040 0.956664 -0.288339
3.280000 -0.570400 -14.150000 0.862941 -0.041139 -0.503586
0.248800 -1.848000 -16.780001 0.054598 0.332469 -0.941527
-0.974400 -2.686000 -16.570000 -0.623585 -0.317087 -0.714499
0.730700 -3.159000 -16.469999 0.380840 -0.746208 -0.545976
-2.678000 2.963000 -8.185000 -0.930021 0.303995 0.206366
-2.616000 -2.779000 -12.240000 -0.730857 -0.681234 0.041322
-1.159000 -1.533000 -8.922000 -0.313974 -0.783593 0.536058
3 0 1 2
3 1 3 2
3 2 4 5
3 4 6 5
3 5 6 7
3 7 6 8
3 2 3 9
3 2 9 4
3 4 9 6
3 6 9 8
3 5 0 2
3 5 7 0
3 8 10 7
3 7 10 0
3 0 10 1
3 1 10 11
3 1 11 3
3 10 12 11
3 11 12 3
3 3 12 9
3 10 8 12
3 12 8 9
3 13 14 15
3 15 14 16
3 17 15 16
3 18 19 14
3 14 19 16
3 19 20 16
3 15 17 21
3 15 21 13
3 14 13 18
3 21 22 13
3 13 22 18
3 21 23 22
3 21 24 23
3 23 25 22
3 22 25 18
3 18 25 20
3 18 20 19
3 23 26 25
3 25 26 20
3 23 24 26
3 26 24 27
3 26 27 20
3 20 27 16
3 24 21 27
3 27 21 17
3 27 17 16
3 28 29 30
3 31 32 29
3 29 32 30
3 32 33 30
3 30 33 28
3 28 33 34
3 28 34 35
3 35 34 36
3 28 35 29
3 35 36 29
3 29 36 31
3 36 37 31
3 31 37 32
3 37 38 32
3 32 38 33
3 36 34 37
3 37 34 38
3 38 34 33
3 39 40 41
3 42 43 40
3 40 43 41
3 43 44 41
3 41 44 39
3 39 44 45
3 39 45 46
3 46 45 47
3 39 46 40
3 46 47 40
3 40 47 42
3 47 48 42
3 42 48 43
3 48 49 43
3 43 49 44
3 47 45 48
3 48 45 49
3 49 45 44
3 50 51 52
3 50 52 53
3 51 54 55
3 51 55 52
3 54 56 57
3 54 57 55
3 56 58 59
3 56 59 57
3 58 60 61
3 58 61 59
3 60 50 53
3 60 53 61
3 53 52 62
3 53 62 63
3 52 55 64
3 52 64 62
3 55 57 65
3 55 65 64
3 57 59 66
3 57 66 65
3 59 61 67
3 59 67 66
3 61 53 63
3 61 63 67
3 63 62 68
3 63 68 69
3 62 64 70
3 62 70 68
3 64 65 71
3 64 71 70
3 65 66 72
3 65 72 71
3 66 67 73
3 66 73 72
3 67 63 69
3 67 69 73
3 69 68 74
3 69 74 75
3 68 70 76
3 68 76 74
3 70 71 77
3 70 77 76
3 71 72 78
3 71 78 77
3 72 73 79
3 72 79 78
3 73 69 75
3 73 75 79
3 75 74 80
3 75 80 81
3 74 76 82
3 74 82 80
3 76 77 83
3 76 83 82
3 77 78 84
3 77 84 83
3 78 79 85
3 78 85 84
3 79 75 81
3 79 81 85
3 81 80 86
3 81 86 87
3 80 82 88
3 80 88 86
3 82 83 89
3 82 89 88
3 83 84 90
3 83 90 89
3 84 85 91
3 84 91 90
3 85 81 87
3 85 87 91
3 87 86 92
3 87 92 93
3 86 88 94
3 86 94 92
3 88 89 95
3 88 95 94
3 89 90 96
3 89 96 95
3 90 91 97
3 90 97 96
3 91 87 93
3 91 93 97
3 93 92 98
3 93 98 99
3 92 94 100
3 92 100 98
3 94 95 101
3 94 101 100
3 95 96 102
3 95 102 101
3 96 97 103
3 96 103 102
3 97 93 99
3 97 99 103
3 99 98 104
3 99 104 105
3 98 100 106
3 98 106 104
3 100 101 107
3 100 107 106
3 101 102 108
3 101 108 107
3 102 103 109
3 102 109 108
3 103 99 105
3 103 105 109
3 105 104 110
3 105 110 111
3 104 106 112
3 104 112 110
3 106 107 113
3 106 113 112
3 107 108 114
3 107 114 113
3 108 109 115
3 108 115 114
3 109 105 111
3 109 111 115
3 54 51 50
3 56 54 50
3 58 56 50
3 60 58 50
3 112 113 110
3 113 114 110
3 114 115 110
3 115 111 110
3 116 117 118
3 119 116 118
3 120 121 117
3 116 120 117
3 122 123 121
3 120 122 121
3 124 125 123
3 122 124 123
3 126 127 125
3 124 126 125
3 119 118 127
3 126 119 127
3 128 116 119
3 129 128 119
3 130 120 116
3 128 130 116
3 131 122 120
3 130 131 120
3 132 124 122
3 131 132 122
3 133 126 124
3 132 133 124
3 129 119 126
3 133 129 126
3 134 128 129
3 135 134 129
3 136 130 128
3 134 136 128
3 137 131 130
3 136 137 130
3 138 132 131
3 137 138 131
3 139 133 132
3 138 139 132
3 135 129 133
3 139 135 133
3 140 134 135
3 141 140 135
3 142 136 134
3 140 142 134
3 143 137 136
3 142 143 136
3 144 138 137
3 143 144 137
3 145 139 138
3 144 145 138
3 141 135 139
3 145 141 139
3 146 140 141
3 147 146 141
3 148 142 140
3 146 148 140
3 149 143 142
3 148 149 142
3 150 144 143
3 149 150 143
3 151 145 144
3 150 151 144
3 147 141 145
3 151 147 145
3 152 146 147
3 153 152 147
3 154 148 146
3 152 154 146
3 155 149 148
3 154 155 148
3 156 150 149
3 155 156 149
3 157 151 150
3 156 157 150
3 153 147 151
3 157 153 151
3 158 152 153
3 159 158 153
3 160 154 152
3 158 160 152
3 161 155 154
3 160 161 154
3 162 156 155
3 161 162 155
3 163 157 156
3 162 163 156
3 159 153 157
3 163 159 157
3 164 158 159
3 165 164 159
3 166 160 158
3 164 166 158
3 167 161 160
3 166 167 160
3 168 162 161
3 167 168 161
3 169 163 162
3 168 169 162
3 165 159 163
3 169 165 163
3 170 164 165
3 171 170 165
3 172 166 164
3 170 172 164
3 173 167 166
3 172 173 166
3 174 168 167
3 173 174 167
3 175 169 168
3 174 175 168
3 171 165 169
3 175 171 169
3 176 170 171
3 177 176 171
3 178 172 170
3 176 178 170
3 179 173 172
3 178 179 172
3 180 174 173
3 179 180 173
3 181 175 174
3 180 181 174
3 177 171 175
3 181 177 175
3 118 117 121
3 118 121 123
3 118 123 125
3 118 125 127
3 176 179 178
3 176 180 179
3 176 181 180
3 176 177 181
3 182 183 184
3 182 185 183
3 185 186 183
3 185 182 186
3 182 184 186
3 184 187 188
3 184 183 187
3 186 184 188
3 188 187 189
3 187 190 189
3 187 183 190
3 183 191 190
3 183 186 191
3 186 188 191
3 189 190 192
3 189 192 193
3 190 191 194
3 190 194 192
3 191 188 194
3 188 189 193
3 188 193 194
3 193 195 196
3 193 192 195
3 192 197 195
3 192 194 197
3 194 198 197
3 194 193 196
3 195 199 196
3 198 200 197
3 194 196 201
3 194 201 198
3 196 199 201
3 195 197 199
3 198 201 200
3 201 199 202
3 201 202 203
3 199 197 204
3 199 204 202
3 197 200 204
3 200 205 204
3 200 201 203
3 200 203 205
3 203 202 206
3 203 206 207
3 202 204 208
3 202 208 206
3 204 205 209
3 204 209 208
3 205 203 207
3 205 207 209
3 207 206 210
3 207 210 211
3 206 208 212
3 206 212 210
3 208 209 212
3 209 207 211
3 211 213 214
3 211 210 213
3 210 215 213
3 210 212 215
3 212 214 215
3 212 209 214
3 209 211 214
3 214 213 216
3 216 213 217
3 213 215 217
3 215 218 217
3 215 214 218
3 216 217 219
3 216 219 220
3 217 218 221
3 217 221 219
3 218 214 221
3 214 216 220
3 220 219 222
3 220 222 223
3 219 224 222
3 219 221 224
3 221 225 224
3 221 226 225
3 221 214 226
3 214 220 223
3 214 223 226
3 222 224 225
3 225 226 223
3 223 222 225
3 227 228 229
3 230 231 227
3 227 229 230
3 230 229 232
3 229 228 232
3 228 227 233
3 228 233 232
3 227 231 233
3 230 232 234
3 232 233 235
3 233 231 236
3 231 230 236
3 230 234 237
3 232 235 234
3 233 236 235
3 236 230 237
3 237 234 238
3 237 238 239
3 234 235 238
3 235 240 238
3 235 236 240
3 236 237 239
3 236 239 240
3 239 241 242
3 239 238 241
3 238 240 243
3 238 243 241
3 240 242 243
3 240 239 242
3 242 241 244
3 241 245 244
3 241 243 246
3 241 246 245
3 243 242 246
3 244 245 247
3 245 246 248
3 246 242 249
3 242 244 249
3 249 244 250
3 244 247 250
3 245 248 247
3 246 249 248
3 250 247 251
3 247 248 251
3 250 251 252
3 251 248 253
3 251 253 252
3 248 249 253
3 250 252 254
3 250 254 255
3 252 253 256
3 252 256 254
3 253 249 256
3 249 250 255
3 249 255 256
3 255 254 257
3 255 257 258
3 254 256 259
3 254 259 257
3 256 255 258
3 258 260 261
3 258 257 260
3 257 262 260
3 257 259 262
3 259 261 262
3 259 256 261
3 256 258 261
3 261 260 263
3 263 260 264
3 260 262 264
3 262 265 264
3 262 261 265
3 263 264 266
3 263 266 267
3 264 265 268
3 264 268 266
3 265 261 268
3 261 263 267
3 267 266 269
3 267 269 270
3 266 271 269
3 266 268 271
3 268 272 271
3 268 273 272
3 268 261 273
3 261 267 270
3 261 270 273
3 269 271 272
3 272 273 270
3 270 269 272
3 274 275 276
3 274 277 275
3 277 278 275
3 277 276 278
3 277 274 276
3 276 279 280
3 276 275 279
3 278 276 280
3 280 279 281
3 279 282 281
3 279 275 282
3 275 283 282
3 275 278 283
3 278 280 283
3 281 282 284
3 281 284 285
3 282 283 286
3 282 286 284
3 283 280 286
3 280 281 285
3 280 285 286
3 285 287 288
3 285 284 287
3 284 289 287
3 284 286 289
3 286 290 289
3 286 285 288
3 287 291 288
3 290 292 289
3 286 288 293
3 286 293 290
3 288 291 293
3 287 289 291
3 290 293 292
3 293 291 294
3 293 294 295
3 291 289 296
3 291 296 294
3 289 292 296
3 292 297 296
3 292 293 295
3 292 295 297
3 295 294 298
3 295 298 299
3 294 296 300
3 294 300 298
3 296 297 301
3 296 301 300
3 297 295 299
3 297 299 301
3 299 298 302
3 299 302 303
3 298 300 304
3 298 304 302
3 300 301 304
3 301 299 303
3 303 305 306
3 303 302 305
3 302 307 305
3 302 304 307
3 304 306 307
3 304 301 306
3 301 303 306
3 306 305 308
3 308 305 309
3 305 307 309
3 307 310 309
3 307 306 310
3 308 309 311
3 308 311 312
3 309 310 313
3 309 313 311
3 310 306 313
3 306 308 312
3 312 311 314
3 312 314 315
3 311 316 314
3 311 313 316
3 313 317 316
3 313 318 317
3 313 306 318
3 306 312 315
3 306 315 318
3 314 316 317
3 317 318 315
3 315 314 317
3 319 320 321
3 322 323 319
3 323 320 319
3 324 321 320
3 323 324 320
3 324 322 321
3 322 319 321
3 325 326 322
3 326 323 322
3 325 322 324
3 327 326 325
3 327 328 326
3 328 323 326
3 328 329 323
3 329 324 323
3 329 325 324
3 330 328 327
3 331 330 327
3 332 329 328
3 330 332 328
3 332 325 329
3 331 327 325
3 332 331 325
3 333 334 331
3 334 330 331
3 334 335 330
3 335 332 330
3 335 336 332
3 333 331 332
3 333 337 334
3 335 338 336
3 339 333 332
3 336 339 332
3 339 337 333
3 337 335 334
3 338 339 336
3 340 337 339
3 341 340 339
3 342 335 337
3 340 342 337
3 342 338 335
3 342 343 338
3 341 339 338
3 343 341 338
3 344 340 341
3 345 344 341
3 346 342 340
3 344 346 340
3 347 343 342
3 346 347 342
3 345 341 343
3 347 345 343
3 348 344 345
3 349 348 345
3 350 346 344
3 348 350 344
3 350 347 346
3 349 345 347
3 351 352 349
3 352 348 349
3 352 353 348
3 353 350 348
3 353 351 350
3 351 347 350
3 351 349 347
3 354 352 351
3 355 352 354
3 355 353 352
3 355 356 353
3 356 351 353
3 357 355 354
3 358 357 354
3 359 356 355
3 357 359 355
3 359 351 356
3 358 354 351
3 360 357 358
3 361 360 358
3 360 362 357
3 362 359 357
3 362 363 359
3 363 364 359
3 364 351 359
3 361 358 351
3 364 361 351
3 363 362 360
3 361 364 363
3 363 360 361
3 365 366 367
3 365 368 366
3 368 365 369
3 365 370 369
3 365 367 370
3 367 371 370
3 367 366 371
3 368 369 370
3 368 370 371
3 368 371 366
3 372 373 374
3 373 375 374
3 376 374 375
3 376 377 374
3 377 372 374
3 377 378 372
3 378 373 372
3 377 376 375
3 378 377 375
3 373 378 375
3 379 380 381
3 381 382 383
3 383 379 381
3 384 379 383
3 384 380 379
3 384 385 380
3 385 381 380
3 385 382 381
3 386 384 383
3 387 385 384
3 388 382 385
3 388 383 382
3 389 386 383
3 386 387 384
3 387 388 385
3 389 383 388
3 390 386 389
3 391 390 389
3 390 387 386
3 390 392 387
3 392 388 387
3 391 389 388
3 392 391 388
3 393 394 391
3 394 390 391
3 395 392 390
3 394 395 390
3 395 393 392
3 393 391 392
3 396 394 393
3 396 397 394
3 398 395 394
3 397 398 394
3 398 393 395
3 399 397 396
3 400 398 397
3 401 393 398
3 401 396 393
3 402 396 401
3 402 399 396
3 399 400 397
3 400 401 398
3 403 399 402
3 403 400 399
3 404 403 402
3 405 400 403
3 404 405 403
3 405 401 400
3 406 404 402
3 407 406 402
3 408 405 404
3 406 408 404
3 408 401 405
3 407 402 401
3 408 407 401
3 409 406 407
3 410 409 407
3 411 408 406
3 409 411 406
3 410 407 408
3 412 413 410
3 413 409 410
3 413 414 409
3 414 411 409
3 414 412 411
3 412 408 411
3 412 410 408
3 415 413 412
3 416 413 415
3 416 414 413
3 416 417 414
3 417 412 414
3 418 416 415
3 419 418 415
3 420 417 416
3 418 420 416
3 420 412 417
3 419 415 412
3 421 418 419
3 422 421 419
3 421 423 418
3 423 420 418
3 423 424 420
3 424 425 420
3 425 412 420
3 422 419 412
3 425 422 412
3 424 423 421
3 422 425 424
3 424 421 422
3 426 427 428
3 429 430 426
3 430 427 426
3 431 428 427
3 430 431 427
3 431 429 428
3 429 426 428
3 432 433 429
3 433 430 429
3 432 429 431
3 434 433 432
3 434 435 433
3 435 430 433
3 435 436 430
3 436 431 430
3 436 432 431
3 437 435 434
3 438 437 434
3 439 436 435
3 437 439 435
3 439 432 436
3 438 434 432
3 439 438 432
3 440 441 438
3 441 437 438
3 441 442 437
3 442 439 437
3 442 443 439
3 440 438 439
3 440 444 441
3 442 445 443
3 446 440 439
3 443 446 439
3 446 444 440
3 444 442 441
3 445 446 443
3 447 444 446
3 448 447 446
3 449 442 444
3 447 449 444
3 449 445 442
3 449 450 445
3 448 446 445
3 450 448 445
3 451 447 448
3 452 451 448
3 453 449 447
3 451 453 447
3 454 450 449
3 453 454 449
3 452 448 450
3 454 452 450
3 455 451 452
3 456 455 452
3 457 453 451
3 455 457 451
3 457 454 453
3 456 452 454
3 458 459 456
3 459 455 456
3 459 460 455
3 460 457 455
3 460 458 457
3 458 454 457
3 458 456 454
3 461 459 458
3 462 459 461
3 462 460 459
3 462 463 460
3 463 458 460
3 464 462 461
3 465 464 461
3 466 463 462
3 464 466 462
3 466 458 463
3 465 461 458
3 467 464 465
3 468 467 465
3 467 469 464
3 469 466 464
3 469 470 466
3 470 471 466
3 471 458 466
3 468 465 458
3 471 468 458
3 470 469 467
3 468 471 470
3 470 467 468
3 472 473 474
3 473 475 474
3 475 476 474
3 474 476 477
3 474 478 472
3 474 477 478
3 477 476 479
3 477 479 480
3 477 480 478
3 478 480 481
3 479 482 480
3 480 482 481
3 478 483 472
3 472 483 473
3 478 481 483
3 483 481 484
3 483 484 473
3 484 485 473
3 473 485 475
3 475 485 476
3 484 481 482
3 484 482 485
3 485 482 476
3 482 479 476
