ply
format ascii 1.0
comment Created by Blender 2.81 (sub 16) - www.blender.org, source file: ''
element vertex 322
property float x
property float y
property float z
property float nx
property float ny
property float nz
element face 636
property list uchar uint vertex_indices
end_header
2.229870 0.000000 0.397806 -0.043916 -0.706381 0.706442
0.682131 0.000000 0.296566 -0.047151 -0.706778 0.705832
0.000000 0.000000 0.250000 -0.839930 -0.538438 0.067690
4.930200 0.000000 0.533548 -0.034608 -0.715415 0.697806
3.895220 0.000000 0.496029 -0.033723 -0.704550 0.708823
6.576860 0.063545 0.875000 0.636494 -0.771233 0.000000
6.245860 0.063545 0.919577 -0.417676 -0.728355 0.543138
6.072030 0.063545 0.809719 -0.312540 -0.723777 0.615162
6.629800 0.063545 1.069520 0.566088 -0.763634 -0.310373
6.630570 0.063545 1.252010 -0.415082 -0.689779 0.593158
6.394940 0.063545 1.057770 -0.469649 -0.700613 0.537156
7.250000 0.063545 1.500000 -0.025971 -0.666677 0.744865
6.924880 0.063545 1.425140 -0.273171 -0.674398 0.685934
7.815810 0.063545 1.316830 0.463240 -0.667592 0.582842
7.561380 0.063545 1.450840 0.233375 -0.672109 0.702689
8.050390 0.063545 0.875000 0.753502 -0.657338 0.010254
7.987430 0.063545 1.118150 0.665883 -0.659291 0.349132
7.835070 0.063545 0.435493 0.475051 -0.664724 -0.576556
7.994660 0.063545 0.632722 0.675588 -0.659749 -0.329020
7.250000 0.063545 0.250000 0.032991 -0.683401 -0.729240
7.583050 0.063545 0.301767 0.233772 -0.671560 -0.703085
6.722030 0.063545 0.333191 -0.259590 -0.691214 -0.674398
6.928000 0.063545 0.270549 -0.130558 -0.681997 -0.719565
0.700226 0.000000 0.086752 -0.103671 -0.688345 -0.717917
2.278120 0.000000 -0.004585 -0.020783 -0.700705 -0.713126
3.949500 0.000000 -0.005447 0.039277 -0.694876 -0.718009
6.774140 0.063545 1.228460 0.399182 -0.750816 -0.526200
6.540310 0.063545 0.418672 -0.265481 -0.718101 -0.643269
6.291030 0.063545 0.507741 -0.130955 -0.741508 -0.657979
6.988120 0.063545 1.335670 0.201697 -0.744194 -0.636738
7.250000 0.063545 1.375000 0.000000 -0.742088 -0.670247
7.511880 0.063545 1.335670 -0.201697 -0.744194 -0.636738
7.725860 0.063545 1.228460 -0.399182 -0.750816 -0.526200
6.774140 0.063545 0.521540 0.399182 -0.750816 0.526200
6.988120 0.063545 0.414328 0.201697 -0.744224 0.636738
7.870200 0.063545 1.069520 -0.566088 -0.763634 -0.310373
7.250000 0.063545 0.375000 0.000000 -0.742088 0.670247
7.923140 0.063545 0.875000 -0.636494 -0.771233 0.000000
7.511880 0.063545 0.414328 -0.201697 -0.744224 0.636738
7.870200 0.063545 0.680483 -0.566118 -0.763634 0.310373
7.725860 0.063545 0.521540 -0.399182 -0.750816 0.526200
0.682131 0.119280 0.296566 -0.047151 0.706778 0.705832
0.000000 0.119280 0.250000 -0.839930 0.538438 0.067690
2.229870 0.119280 0.397806 -0.043916 0.706381 0.706442
3.895220 0.119280 0.496029 -0.033723 0.704550 0.708823
4.930200 0.119280 0.533548 -0.050905 0.709922 0.702414
5.375750 0.008393 0.571908 -0.059633 -0.747581 0.661458
5.375750 0.127672 0.571908 -0.176641 0.702872 0.689016
5.769180 0.044361 0.678897 -0.175237 -0.740440 0.648823
5.769180 0.163641 0.678897 -0.278268 0.702780 0.654683
6.072030 0.182824 0.809719 -0.330485 0.726005 0.603015
6.245860 0.182824 0.919577 -0.417676 0.728355 0.543138
6.394940 0.182824 1.057770 -0.469649 0.700613 0.537156
6.630570 0.182824 1.252010 -0.415082 0.689779 0.593158
6.924880 0.182824 1.425140 -0.273171 0.674398 0.685934
7.250000 0.182824 1.500000 -0.025971 0.666677 0.744865
7.561380 0.182824 1.450840 0.233375 0.672109 0.702689
7.815810 0.182824 1.316830 0.463240 0.667592 0.582842
7.987430 0.182824 1.118150 0.665883 0.659291 0.349132
8.050390 0.182824 0.875000 0.753502 0.657338 0.010254
7.994660 0.182824 0.632722 0.675588 0.659749 -0.329020
7.835070 0.182824 0.435493 0.475051 0.664724 -0.576556
7.583050 0.182824 0.301767 0.233772 0.671560 -0.703085
7.250000 0.182824 0.250000 0.032991 0.683401 -0.729240
6.928000 0.182824 0.270549 -0.130558 0.681997 -0.719565
6.722030 0.182824 0.333191 -0.259590 0.691214 -0.674398
6.540310 0.182824 0.418672 -0.265481 0.718101 -0.643269
6.291030 0.182824 0.507741 -0.130955 0.741508 -0.657979
5.972100 0.063545 0.523624 0.107913 -0.729118 -0.675802
5.972100 0.182824 0.523624 0.037446 0.758324 -0.650777
5.640780 0.044361 0.431902 0.297983 -0.690023 -0.659566
5.640780 0.163641 0.431902 0.163518 0.752464 -0.637959
5.294380 0.008393 0.276847 0.322153 -0.706778 -0.629810
5.294380 0.127672 0.276847 0.269295 0.711722 -0.648732
4.930200 0.000000 0.102732 0.207892 -0.672872 -0.709922
4.930200 0.119280 0.102732 0.198798 0.669698 -0.715506
3.949500 0.119280 -0.005447 0.039277 0.694876 -0.718009
2.278120 0.119280 -0.004585 -0.020783 0.700705 -0.713126
0.700226 0.119280 0.086752 -0.103671 0.688345 -0.717917
7.511880 0.182824 0.414328 -0.201697 0.744224 0.636738
7.250000 0.182824 0.375000 0.000000 0.742088 0.670247
7.725860 0.182824 0.521540 -0.399182 0.750816 0.526200
7.870200 0.182824 0.680483 -0.566118 0.763634 0.310343
7.923140 0.182824 0.875000 -0.636494 0.771233 0.000000
7.870200 0.182824 1.069520 -0.566088 0.763634 -0.310373
7.725860 0.182824 1.228460 -0.399182 0.750816 -0.526200
7.511880 0.182824 1.335670 -0.201697 0.744194 -0.636738
7.250000 0.182824 1.375000 0.000000 0.742088 -0.670247
6.988120 0.182824 1.335670 0.201697 0.744194 -0.636738
6.774140 0.182824 1.228460 0.399182 0.750816 -0.526200
6.629800 0.182824 1.069520 0.566088 0.763634 -0.310373
6.576860 0.182824 0.875000 0.636494 0.771233 0.000000
6.629800 0.063545 0.680483 0.566118 -0.763634 0.310373
6.629800 0.182824 0.680483 0.566118 0.763634 0.310373
6.774140 0.182824 0.521540 0.399182 0.750816 0.526200
6.988120 0.182824 0.414328 0.201697 0.744224 0.636738
2.229860 0.246333 0.102112 -0.043916 0.706381 -0.706442
0.682128 0.246333 0.203351 -0.047151 0.706778 -0.705832
-0.000002 0.246333 0.249917 -0.839930 0.538408 -0.067690
4.930200 0.246333 -0.033631 -0.034639 0.715415 -0.697806
3.895220 0.246333 0.003888 -0.033723 0.704550 -0.708823
6.576850 0.182789 -0.375083 0.636494 0.771264 0.000000
6.245860 0.182789 -0.419660 -0.417676 0.728355 -0.543138
6.072030 0.182789 -0.309802 -0.312540 0.723777 -0.615162
6.629800 0.182789 -0.569600 0.566088 0.763634 0.310373
6.630570 0.182789 -0.752093 -0.415082 0.689779 -0.593158
6.394940 0.182789 -0.557851 -0.469649 0.700613 -0.537156
7.250000 0.182789 -1.000080 -0.025971 0.666677 -0.744865
6.924880 0.182789 -0.925225 -0.273171 0.674398 -0.685934
7.815810 0.182789 -0.816908 0.463240 0.667592 -0.582812
7.561380 0.182789 -0.950923 0.233375 0.672109 -0.702689
8.050390 0.182789 -0.375083 0.753502 0.657338 -0.010254
7.987430 0.182789 -0.618229 0.665883 0.659291 -0.349132
7.835070 0.182789 0.064424 0.475051 0.664724 0.576556
7.994660 0.182789 -0.132805 0.675588 0.659749 0.329020
7.250000 0.182789 0.249917 0.032991 0.683401 0.729240
7.583050 0.182789 0.198150 0.233772 0.671560 0.703085
6.722030 0.182789 0.166726 -0.259590 0.691214 0.674398
6.928000 0.182789 0.229368 -0.130558 0.681997 0.719565
0.700223 0.246333 0.413165 -0.103671 0.688345 0.717917
2.278120 0.246333 0.504503 -0.020783 0.700705 0.713126
3.949500 0.246333 0.505364 0.039277 0.694876 0.718009
6.774140 0.182789 -0.728543 0.399182 0.750816 0.526200
6.540310 0.182789 0.081245 -0.265481 0.718101 0.643269
6.291030 0.182789 -0.007823 -0.130955 0.741508 0.657979
6.988120 0.182789 -0.835755 0.201697 0.744224 0.636738
7.250000 0.182789 -0.875083 0.000000 0.742088 0.670247
7.511880 0.182789 -0.835755 -0.201697 0.744224 0.636738
7.725860 0.182789 -0.728543 -0.399182 0.750816 0.526200
6.774140 0.182789 -0.021623 0.399182 0.750816 -0.526200
6.988120 0.182789 0.085590 0.201697 0.744224 -0.636738
7.870200 0.182789 -0.569600 -0.566118 0.763634 0.310373
7.250000 0.182789 0.124917 0.000000 0.742088 -0.670247
7.923140 0.182789 -0.375083 -0.636494 0.771233 0.000000
7.511870 0.182789 0.085590 -0.201697 0.744194 -0.636738
7.870200 0.182789 -0.180565 -0.566118 0.763634 -0.310373
7.725860 0.182789 -0.021623 -0.399182 0.750816 -0.526200
0.682128 0.127054 0.203351 -0.047182 -0.706687 -0.705924
-0.000002 0.127054 0.249917 -0.839930 -0.538408 -0.067690
2.229860 0.127053 0.102112 -0.043916 -0.706381 -0.706442
3.895220 0.127053 0.003888 -0.033723 -0.704550 -0.708823
4.930200 0.127053 -0.033631 -0.050905 -0.709922 -0.702414
5.375750 0.237941 -0.071991 -0.059633 0.747581 -0.661458
5.375750 0.118661 -0.071991 -0.176641 -0.702872 -0.689016
5.769180 0.201972 -0.178980 -0.175237 0.740440 -0.648823
5.769180 0.082692 -0.178980 -0.278268 -0.702780 -0.654683
6.072030 0.063509 -0.309802 -0.330485 -0.726005 -0.603015
6.245860 0.063509 -0.419660 -0.417676 -0.728355 -0.543138
6.394940 0.063509 -0.557851 -0.469649 -0.700613 -0.537126
6.630570 0.063509 -0.752093 -0.415082 -0.689779 -0.593158
6.924880 0.063509 -0.925225 -0.273171 -0.674398 -0.685934
7.250000 0.063509 -1.000080 -0.025971 -0.666677 -0.744865
7.561380 0.063509 -0.950923 0.233375 -0.672109 -0.702689
7.815810 0.063509 -0.816908 0.463240 -0.667592 -0.582812
7.987430 0.063509 -0.618229 0.665883 -0.659291 -0.349132
8.050390 0.063509 -0.375083 0.753502 -0.657338 -0.010254
7.994660 0.063509 -0.132805 0.675588 -0.659749 0.329020
7.835070 0.063509 0.064424 0.475051 -0.664724 0.576556
7.583050 0.063509 0.198150 0.233772 -0.671560 0.703085
7.250000 0.063509 0.249917 0.032991 -0.683401 0.729240
6.928000 0.063509 0.229368 -0.130558 -0.681997 0.719565
6.722030 0.063509 0.166726 -0.259590 -0.691214 0.674398
6.540310 0.063509 0.081245 -0.265481 -0.718101 0.643269
6.291030 0.063509 -0.007823 -0.130955 -0.741508 0.657979
5.972090 0.182789 -0.023707 0.107913 0.729118 0.675802
5.972090 0.063509 -0.023707 0.037446 -0.758324 0.650777
5.640770 0.201972 0.068015 0.297983 0.690023 0.659566
5.640770 0.082692 0.068015 0.163518 -0.752464 0.637959
5.294380 0.237941 0.223070 0.322153 0.706778 0.629810
5.294380 0.118661 0.223070 0.269295 -0.711722 0.648732
4.930200 0.246333 0.397185 0.207892 0.672872 0.709922
4.930200 0.127054 0.397185 0.198798 -0.669698 0.715506
3.949500 0.127054 0.505364 0.039277 -0.694876 0.718009
2.278120 0.127054 0.504503 -0.020783 -0.700705 0.713126
0.700223 0.127054 0.413165 -0.103671 -0.688345 0.717917
7.511870 0.063509 0.085590 -0.201697 -0.744194 -0.636738
7.250000 0.063509 0.124917 0.000000 -0.742088 -0.670247
7.725860 0.063509 -0.021623 -0.399182 -0.750816 -0.526200
7.870200 0.063509 -0.180565 -0.566088 -0.763634 -0.310373
7.923140 0.063509 -0.375083 -0.636494 -0.771233 0.000000
7.870200 0.063509 -0.569600 -0.566118 -0.763634 0.310373
7.725860 0.063509 -0.728543 -0.399182 -0.750816 0.526200
7.511880 0.063509 -0.835755 -0.201697 -0.744224 0.636738
7.250000 0.063509 -0.875083 0.000000 -0.742088 0.670247
6.988120 0.063509 -0.835755 0.201697 -0.744224 0.636738
6.774140 0.063509 -0.728543 0.399182 -0.750816 0.526200
6.629800 0.063509 -0.569600 0.566088 -0.763634 0.310373
6.576850 0.063509 -0.375083 0.636494 -0.771264 0.000000
6.629800 0.182789 -0.180566 0.566088 0.763634 -0.310373
6.629800 0.063509 -0.180566 0.566088 -0.763634 -0.310373
6.774140 0.063509 -0.021623 0.399182 -0.750816 -0.526200
6.988120 0.063509 0.085590 0.201697 -0.744224 -0.636738
4.244930 0.349279 0.218237 0.154241 0.915128 -0.372417
4.228670 0.349279 0.215004 0.000000 0.915159 -0.403088
4.228670 0.357727 0.257477 0.000000 1.000000 0.000000
4.258710 0.349279 0.227444 0.285043 0.915128 -0.284982
4.267910 0.349279 0.241223 0.372356 0.915159 -0.154241
4.271150 0.349279 0.257477 0.403088 0.915128 0.000000
4.267910 0.349279 0.273731 0.372326 0.915159 0.154241
4.258710 0.349279 0.287511 0.285073 0.915128 0.284982
4.244930 0.349279 0.296718 0.154210 0.915159 0.372387
4.228670 0.349279 0.299951 0.000000 0.915159 0.403088
4.212420 0.349279 0.296718 -0.154241 0.915128 0.372387
4.198640 0.349279 0.287511 -0.285012 0.915128 0.285043
4.189430 0.349279 0.273731 -0.372417 0.915128 0.154271
4.186200 0.349279 0.257477 -0.403088 0.915159 0.000000
4.189430 0.349279 0.241223 -0.372448 0.915128 -0.154241
4.198640 0.349279 0.227444 -0.284982 0.915159 -0.285043
4.212420 0.349279 0.218237 -0.154241 0.915159 -0.372387
4.258710 0.325219 0.184970 0.275094 0.695120 -0.664144
4.228670 0.325219 0.178996 0.000000 0.695151 -0.718833
4.284170 0.325219 0.201983 0.508316 0.695151 -0.508286
4.301180 0.325219 0.227444 0.664113 0.695151 -0.275063
4.307160 0.325219 0.257477 0.718894 0.695090 -0.000031
4.301180 0.325219 0.287511 0.664083 0.695151 0.275124
4.284170 0.325219 0.312972 0.508316 0.695120 0.508286
4.258710 0.325219 0.329984 0.275094 0.695120 0.664144
4.228670 0.325219 0.335958 0.000000 0.695151 0.718833
4.198640 0.325219 0.329984 -0.275094 0.695151 0.664113
4.173180 0.325219 0.312972 -0.508316 0.695120 0.508286
4.156170 0.325219 0.287511 -0.664113 0.695120 0.275124
4.150190 0.325219 0.257477 -0.718833 0.695151 0.000000
4.156170 0.325219 0.227444 -0.664113 0.695151 -0.275124
4.173180 0.325219 0.201983 -0.508347 0.695120 -0.508286
4.198640 0.325219 0.184970 -0.275094 0.695151 -0.664113
4.267910 0.289212 0.162742 0.354808 0.374371 -0.856685
4.228670 0.289212 0.154937 0.000000 0.374340 -0.927274
4.301180 0.289212 0.184970 0.655660 0.374340 -0.655690
4.323410 0.289212 0.218237 0.856716 0.374310 -0.354808
4.331210 0.289212 0.257477 0.927274 0.374310 0.000000
4.323410 0.289212 0.296718 0.856716 0.374310 0.354808
4.301180 0.289212 0.329984 0.655629 0.374401 0.655690
4.267910 0.289212 0.352212 0.354808 0.374371 0.856685
4.228670 0.289212 0.360018 0.000000 0.374340 0.927274
4.189430 0.289212 0.352212 -0.354869 0.374371 0.856655
4.156170 0.289212 0.329984 -0.655660 0.374401 0.655660
4.133940 0.289212 0.296718 -0.856655 0.374401 0.354869
4.126130 0.289212 0.257477 -0.927244 0.374371 0.000000
4.133940 0.289212 0.218237 -0.856624 0.374432 -0.354900
4.156170 0.289212 0.184970 -0.655660 0.374371 -0.655660
4.189430 0.289212 0.162742 -0.354869 0.374340 -0.856655
4.271150 0.246738 0.154937 0.308695 -0.590960 -0.745262
4.228670 0.246738 0.146489 0.000000 -0.590991 -0.806665
4.307160 0.246738 0.178996 0.570482 -0.590930 -0.570391
4.331210 0.246738 0.215004 0.745232 -0.591021 -0.308664
4.339660 0.246738 0.257477 0.806665 -0.590960 0.000000
4.331210 0.246738 0.299951 0.745262 -0.591021 0.308603
4.307160 0.246738 0.335958 0.570421 -0.590930 0.570391
4.271150 0.246738 0.360018 0.308695 -0.590960 0.745293
4.228670 0.246738 0.368466 0.000000 -0.590991 0.806665
4.186200 0.246738 0.360018 -0.308664 -0.590991 0.745262
4.150190 0.246738 0.335958 -0.570421 -0.590930 0.570391
4.126130 0.246738 0.299951 -0.745262 -0.590930 0.308725
4.117680 0.246738 0.257477 -0.806665 -0.590960 0.000000
4.126130 0.246738 0.215004 -0.745262 -0.590960 -0.308725
4.150190 0.246738 0.178996 -0.570391 -0.590930 -0.570421
4.186200 0.246738 0.154937 -0.308695 -0.590991 -0.745262
4.228670 -0.105499 0.257477 0.000000 -1.000000 0.000000
4.228670 -0.097051 0.215004 0.000000 -0.915159 -0.403058
4.244930 -0.097051 0.218237 0.154210 -0.915159 -0.372387
4.258710 -0.097051 0.227444 0.285043 -0.915159 -0.284982
4.267910 -0.097051 0.241223 0.372356 -0.915159 -0.154210
4.271150 -0.097051 0.257477 0.403058 -0.915159 0.000000
4.267910 -0.097051 0.273731 0.372326 -0.915159 0.154241
4.258710 -0.097051 0.287511 0.285073 -0.915128 0.284951
4.244930 -0.097051 0.296718 0.154210 -0.915159 0.372387
4.228670 -0.097051 0.299951 0.000000 -0.915159 0.403058
4.212420 -0.097051 0.296718 -0.154241 -0.915159 0.372387
4.198640 -0.097051 0.287511 -0.285012 -0.915128 0.285043
4.189430 -0.097051 0.273731 -0.372417 -0.915128 0.154271
4.186200 -0.097051 0.257477 -0.403058 -0.915159 0.000000
4.189430 -0.097051 0.241223 -0.372448 -0.915128 -0.154241
4.198640 -0.097051 0.227444 -0.284982 -0.915159 -0.285043
4.212420 -0.097051 0.218237 -0.154241 -0.915159 -0.372387
4.228670 -0.072992 0.178996 0.000000 -0.695151 -0.718833
4.258710 -0.072992 0.184970 0.275094 -0.695120 -0.664144
4.284170 -0.072992 0.201983 0.508316 -0.695151 -0.508286
4.301180 -0.072992 0.227444 0.664113 -0.695151 -0.275063
4.307160 -0.072992 0.257477 0.718894 -0.695090 -0.000031
4.301180 -0.072992 0.287511 0.664083 -0.695151 0.275124
4.284170 -0.072992 0.312972 0.508316 -0.695120 0.508286
4.258710 -0.072992 0.329984 0.275094 -0.695120 0.664144
4.228670 -0.072992 0.335958 0.000000 -0.695151 0.718833
4.198640 -0.072992 0.329984 -0.275094 -0.695151 0.664113
4.173180 -0.072992 0.312972 -0.508316 -0.695120 0.508286
4.156170 -0.072992 0.287511 -0.664113 -0.695151 0.275124
4.150190 -0.072992 0.257477 -0.718833 -0.695151 0.000000
4.156170 -0.072992 0.227444 -0.664113 -0.695151 -0.275124
4.173180 -0.072992 0.201983 -0.508347 -0.695120 -0.508286
4.198640 -0.072992 0.184970 -0.275094 -0.695151 -0.664113
4.228670 -0.036984 0.154937 0.000000 -0.374340 -0.927274
4.267910 -0.036984 0.162742 0.354808 -0.374340 -0.856685
4.301180 -0.036984 0.184970 0.655660 -0.374340 -0.655690
4.323410 -0.036984 0.218237 0.856716 -0.374310 -0.354808
4.331210 -0.036984 0.257477 0.927274 -0.374310 0.000000
4.323410 -0.036984 0.296718 0.856716 -0.374310 0.354808
4.301180 -0.036984 0.329984 0.655629 -0.374371 0.655690
4.267910 -0.036984 0.352212 0.354808 -0.374371 0.856685
4.228670 -0.036984 0.360018 0.000000 -0.374340 0.927274
4.189430 -0.036984 0.352212 -0.354869 -0.374371 0.856655
4.156170 -0.036984 0.329984 -0.655660 -0.374371 0.655660
4.133940 -0.036984 0.296718 -0.856655 -0.374401 0.354869
4.126130 -0.036984 0.257477 -0.927244 -0.374371 0.000000
4.133940 -0.036984 0.218237 -0.856624 -0.374401 -0.354900
4.156170 -0.036984 0.184970 -0.655660 -0.374371 -0.655660
4.189430 -0.036984 0.162742 -0.354869 -0.374340 -0.856655
4.228670 0.005489 0.146489 0.000000 0.590991 -0.806665
4.271150 0.005489 0.154937 0.308695 0.590960 -0.745262
4.307160 0.005489 0.178996 0.570482 0.590899 -0.570391
4.331210 0.005489 0.215004 0.745232 0.591021 -0.308664
4.339660 0.005489 0.257477 0.806665 0.590960 0.000000
4.331210 0.005489 0.299951 0.745262 0.591021 0.308603
4.307160 0.005489 0.335958 0.570421 0.590930 0.570391
4.271150 0.005489 0.360018 0.308695 0.590960 0.745293
4.228670 0.005489 0.368466 0.000000 0.590991 0.806665
4.186200 0.005489 0.360018 -0.308664 0.590991 0.745262
4.150190 0.005489 0.335958 -0.570421 0.590930 0.570391
4.126130 0.005489 0.299951 -0.745262 0.590930 0.308725
4.117680 0.005489 0.257477 -0.806696 0.590960 0.000000
4.126130 0.005489 0.215004 -0.745262 0.590960 -0.308725
4.150190 0.005489 0.178996 -0.570391 0.590930 -0.570421
4.186200 0.005489 0.154937 -0.308695 0.590991 -0.745262
3 0 1 2
3 3 4 0
3 5 6 7
3 6 5 8
3 9 10 6
3 11 12 9
3 13 14 11
3 15 16 13
3 17 18 15
3 19 20 17
3 21 22 19
3 23 24 25
3 0 2 23
3 6 8 26
3 27 21 19
3 0 23 25
3 9 6 26
3 28 27 19
3 3 0 25
3 9 26 29
3 11 9 29
3 11 29 30
3 11 30 31
3 11 31 32
3 33 28 19
3 13 11 32
3 34 33 19
3 13 32 35
3 36 34 19
3 13 35 37
3 36 19 17
3 15 13 37
3 38 36 17
3 15 37 39
3 40 38 17
3 15 39 40
3 40 17 15
3 2 1 41
3 2 41 42
3 1 0 43
3 1 43 41
3 0 4 44
3 0 44 43
3 4 3 45
3 4 45 44
3 3 46 47
3 3 47 45
3 46 48 49
3 46 49 47
3 48 7 50
3 48 50 49
3 7 6 51
3 7 51 50
3 6 10 52
3 6 52 51
3 10 9 53
3 10 53 52
3 9 12 54
3 9 54 53
3 12 11 55
3 12 55 54
3 11 14 56
3 11 56 55
3 14 13 57
3 14 57 56
3 13 16 58
3 13 58 57
3 16 15 59
3 16 59 58
3 15 18 60
3 15 60 59
3 18 17 61
3 18 61 60
3 17 20 62
3 17 62 61
3 20 19 63
3 20 63 62
3 19 22 64
3 19 64 63
3 22 21 65
3 22 65 64
3 21 27 66
3 21 66 65
3 27 28 67
3 27 67 66
3 28 68 69
3 28 69 67
3 68 70 71
3 68 71 69
3 70 72 73
3 70 73 71
3 72 74 75
3 72 75 73
3 74 25 76
3 74 76 75
3 25 24 77
3 25 77 76
3 24 23 78
3 24 78 77
3 23 2 42
3 23 42 78
3 36 38 79
3 36 79 80
3 38 40 81
3 38 81 79
3 40 39 82
3 40 82 81
3 39 37 83
3 39 83 82
3 37 35 84
3 37 84 83
3 35 32 85
3 35 85 84
3 32 31 86
3 32 86 85
3 31 30 87
3 31 87 86
3 30 29 88
3 30 88 87
3 29 26 89
3 29 89 88
3 26 8 90
3 26 90 89
3 8 5 91
3 8 91 90
3 5 92 93
3 5 93 91
3 92 33 94
3 92 94 93
3 33 34 95
3 33 95 94
3 34 36 80
3 34 80 95
3 42 41 43
3 43 44 45
3 50 51 91
3 90 91 51
3 51 52 53
3 53 54 55
3 55 56 57
3 57 58 59
3 59 60 61
3 61 62 63
3 63 64 65
3 76 77 78
3 78 42 43
3 89 90 51
3 63 65 66
3 76 78 43
3 89 51 53
3 63 66 67
3 76 43 45
3 88 89 53
3 88 53 55
3 87 88 55
3 86 87 55
3 85 86 55
3 63 67 94
3 85 55 57
3 63 94 95
3 84 85 57
3 63 95 80
3 83 84 57
3 61 63 80
3 83 57 59
3 61 80 79
3 82 83 59
3 61 79 81
3 81 82 59
3 59 61 81
3 28 92 7
3 68 7 48
3 70 48 46
3 72 46 3
3 74 3 25
3 68 28 7
3 7 92 5
3 28 33 92
3 70 68 48
3 72 70 46
3 74 72 3
3 94 67 93
3 93 50 91
3 67 50 93
3 67 69 50
3 50 69 49
3 49 69 71
3 71 47 49
3 71 73 47
3 73 75 45
3 75 76 45
3 47 73 45
3 96 97 98
3 99 100 96
3 101 102 103
3 102 101 104
3 105 106 102
3 107 108 105
3 109 110 107
3 111 112 109
3 113 114 111
3 115 116 113
3 117 118 115
3 119 120 121
3 96 98 119
3 102 104 122
3 123 117 115
3 96 119 121
3 105 102 122
3 124 123 115
3 99 96 121
3 105 122 125
3 107 105 125
3 107 125 126
3 107 126 127
3 107 127 128
3 129 124 115
3 109 107 128
3 130 129 115
3 109 128 131
3 132 130 115
3 109 131 133
3 132 115 113
3 111 109 133
3 134 132 113
3 111 133 135
3 136 134 113
3 111 135 136
3 136 113 111
3 98 97 137
3 98 137 138
3 97 96 139
3 97 139 137
3 96 100 140
3 96 140 139
3 100 99 141
3 100 141 140
3 99 142 143
3 99 143 141
3 142 144 145
3 142 145 143
3 144 103 146
3 144 146 145
3 103 102 147
3 103 147 146
3 102 106 148
3 102 148 147
3 106 105 149
3 106 149 148
3 105 108 150
3 105 150 149
3 108 107 151
3 108 151 150
3 107 110 152
3 107 152 151
3 110 109 153
3 110 153 152
3 109 112 154
3 109 154 153
3 112 111 155
3 112 155 154
3 111 114 156
3 111 156 155
3 114 113 157
3 114 157 156
3 113 116 158
3 113 158 157
3 116 115 159
3 116 159 158
3 115 118 160
3 115 160 159
3 118 117 161
3 118 161 160
3 117 123 162
3 117 162 161
3 123 124 163
3 123 163 162
3 124 164 165
3 124 165 163
3 164 166 167
3 164 167 165
3 166 168 169
3 166 169 167
3 168 170 171
3 168 171 169
3 170 121 172
3 170 172 171
3 121 120 173
3 121 173 172
3 120 119 174
3 120 174 173
3 119 98 138
3 119 138 174
3 132 134 175
3 132 175 176
3 134 136 177
3 134 177 175
3 136 135 178
3 136 178 177
3 135 133 179
3 135 179 178
3 133 131 180
3 133 180 179
3 131 128 181
3 131 181 180
3 128 127 182
3 128 182 181
3 127 126 183
3 127 183 182
3 126 125 184
3 126 184 183
3 125 122 185
3 125 185 184
3 122 104 186
3 122 186 185
3 104 101 187
3 104 187 186
3 101 188 189
3 101 189 187
3 188 129 190
3 188 190 189
3 129 130 191
3 129 191 190
3 130 132 176
3 130 176 191
3 138 137 139
3 139 140 141
3 146 147 187
3 186 187 147
3 147 148 149
3 149 150 151
3 151 152 153
3 153 154 155
3 155 156 157
3 157 158 159
3 159 160 161
3 172 173 174
3 174 138 139
3 185 186 147
3 159 161 162
3 172 174 139
3 185 147 149
3 159 162 163
3 172 139 141
3 184 185 149
3 184 149 151
3 183 184 151
3 182 183 151
3 181 182 151
3 159 163 190
3 181 151 153
3 159 190 191
3 180 181 153
3 159 191 176
3 179 180 153
3 157 159 176
3 179 153 155
3 157 176 175
3 178 179 155
3 157 175 177
3 177 178 155
3 155 157 177
3 124 188 103
3 164 103 144
3 166 144 142
3 168 142 99
3 170 99 121
3 164 124 103
3 103 188 101
3 124 129 188
3 166 164 144
3 168 166 142
3 170 168 99
3 190 163 189
3 189 146 187
3 163 146 189
3 163 165 146
3 146 165 145
3 145 165 167
3 167 143 145
3 167 169 143
3 169 171 141
3 171 172 141
3 143 169 141
3 192 193 194
3 195 192 194
3 196 195 194
3 197 196 194
3 198 197 194
3 199 198 194
3 200 199 194
3 201 200 194
3 202 201 194
3 203 202 194
3 204 203 194
3 205 204 194
3 206 205 194
3 207 206 194
3 208 207 194
3 193 208 194
3 209 210 193
3 192 209 193
3 211 209 192
3 195 211 192
3 212 211 195
3 196 212 195
3 213 212 196
3 197 213 196
3 214 213 197
3 198 214 197
3 215 214 198
3 199 215 198
3 216 215 199
3 200 216 199
3 217 216 200
3 201 217 200
3 218 217 201
3 202 218 201
3 219 218 202
3 203 219 202
3 220 219 203
3 204 220 203
3 221 220 204
3 205 221 204
3 222 221 205
3 206 222 205
3 223 222 206
3 207 223 206
3 224 223 207
3 208 224 207
3 210 224 208
3 193 210 208
3 225 226 210
3 209 225 210
3 227 225 209
3 211 227 209
3 228 227 211
3 212 228 211
3 229 228 212
3 213 229 212
3 230 229 213
3 214 230 213
3 231 230 214
3 215 231 214
3 232 231 215
3 216 232 215
3 233 232 216
3 217 233 216
3 234 233 217
3 218 234 217
3 235 234 218
3 219 235 218
3 236 235 219
3 220 236 219
3 237 236 220
3 221 237 220
3 238 237 221
3 222 238 221
3 239 238 222
3 223 239 222
3 240 239 223
3 224 240 223
3 226 240 224
3 210 226 224
3 241 242 226
3 225 241 226
3 243 241 225
3 227 243 225
3 244 243 227
3 228 244 227
3 245 244 228
3 229 245 228
3 246 245 229
3 230 246 229
3 247 246 230
3 231 247 230
3 248 247 231
3 232 248 231
3 249 248 232
3 233 249 232
3 250 249 233
3 234 250 233
3 251 250 234
3 235 251 234
3 252 251 235
3 236 252 235
3 253 252 236
3 237 253 236
3 254 253 237
3 238 254 237
3 255 254 238
3 239 255 238
3 256 255 239
3 240 256 239
3 242 256 240
3 226 242 240
3 241 243 242
3 243 244 242
3 244 245 242
3 245 246 242
3 246 247 242
3 247 248 242
3 248 249 242
3 249 250 242
3 250 251 242
3 251 252 242
3 252 253 242
3 253 254 242
3 254 255 242
3 255 256 242
3 257 258 259
3 257 259 260
3 257 260 261
3 257 261 262
3 257 262 263
3 257 263 264
3 257 264 265
3 257 265 266
3 257 266 267
3 257 267 268
3 257 268 269
3 257 269 270
3 257 270 271
3 257 271 272
3 257 272 273
3 257 273 258
3 258 274 275
3 258 275 259
3 259 275 276
3 259 276 260
3 260 276 277
3 260 277 261
3 261 277 278
3 261 278 262
3 262 278 279
3 262 279 263
3 263 279 280
3 263 280 264
3 264 280 281
3 264 281 265
3 265 281 282
3 265 282 266
3 266 282 283
3 266 283 267
3 267 283 284
3 267 284 268
3 268 284 285
3 268 285 269
3 269 285 286
3 269 286 270
3 270 286 287
3 270 287 271
3 271 287 288
3 271 288 272
3 272 288 289
3 272 289 273
3 273 289 274
3 273 274 258
3 274 290 291
3 274 291 275
3 275 291 292
3 275 292 276
3 276 292 293
3 276 293 277
3 277 293 294
3 277 294 278
3 278 294 295
3 278 295 279
3 279 295 296
3 279 296 280
3 280 296 297
3 280 297 281
3 281 297 298
3 281 298 282
3 282 298 299
3 282 299 283
3 283 299 300
3 283 300 284
3 284 300 301
3 284 301 285
3 285 301 302
3 285 302 286
3 286 302 303
3 286 303 287
3 287 303 304
3 287 304 288
3 288 304 305
3 288 305 289
3 289 305 290
3 289 290 274
3 290 306 307
3 290 307 291
3 291 307 308
3 291 308 292
3 292 308 309
3 292 309 293
3 293 309 310
3 293 310 294
3 294 310 311
3 294 311 295
3 295 311 312
3 295 312 296
3 296 312 313
3 296 313 297
3 297 313 314
3 297 314 298
3 298 314 315
3 298 315 299
3 299 315 316
3 299 316 300
3 300 316 317
3 300 317 301
3 301 317 318
3 301 318 302
3 302 318 319
3 302 319 303
3 303 319 320
3 303 320 304
3 304 320 321
3 304 321 305
3 305 321 306
3 305 306 290
3 306 308 307
3 306 309 308
3 306 310 309
3 306 311 310
3 306 312 311
3 306 313 312
3 306 314 313
3 306 315 314
3 306 316 315
3 306 317 316
3 306 318 317
3 306 319 318
3 306 320 319
3 306 321 320
