ply
format ascii 1.0
comment Created by Blender 2.81 (sub 16) - www.blender.org, source file: ''
element vertex 304
property float x
property float y
property float z
property float nx
property float ny
property float nz
element face 604
property list uchar uint vertex_indices
end_header
-1.028820 -1.000000 0.514379 -0.826624 -0.381878 0.413312
-0.670970 -1.000000 0.782767 -0.331950 -0.435621 0.836665
-0.975908 -0.915637 0.487925 -0.709281 0.609180 0.354625
-0.636462 -0.915637 0.742509 -0.278695 0.544023 0.791406
-0.316891 -1.000000 0.800446 -0.386731 -0.669576 0.634083
-0.300593 -0.915637 0.759279 -0.437727 0.507523 0.742149
-0.145915 -1.000000 1.064680 -0.398877 -0.398694 0.825770
-0.138411 -0.915637 1.009920 -0.416120 0.554643 0.720542
0.149405 -1.000000 1.064680 0.446944 -0.393353 0.803400
0.141721 -0.915637 1.009920 0.481704 0.540147 0.690023
0.273751 -1.000000 0.792675 0.414136 -0.712851 0.565935
0.259672 -0.915637 0.751908 0.495682 0.488815 0.717856
0.693336 -1.000000 0.782767 0.369060 -0.421644 0.828211
0.657678 -0.915637 0.742509 0.303751 0.551073 0.777184
0.984090 -1.000000 0.514379 0.838404 -0.395245 0.375256
0.933478 -0.915637 0.487925 0.736991 0.595660 0.319376
0.984091 -1.000000 -0.469711 0.867611 -0.418867 -0.267891
0.933479 -0.915637 -0.445554 0.777886 0.586627 -0.225166
0.782800 -1.000000 -0.782831 0.473586 -0.390088 -0.789636
0.742541 -0.915637 -0.742570 0.377331 0.576800 -0.724479
0.230312 -1.000000 -0.785040 0.411603 -0.728080 -0.548082
0.218467 -0.915637 -0.744665 0.505509 0.473403 -0.721305
0.126835 -1.000000 -1.026490 0.471816 -0.405194 -0.783044
0.120312 -0.915637 -0.973698 0.517258 0.515091 -0.683432
-0.183600 -1.000000 -1.043740 -0.451369 -0.387738 -0.803674
-0.174157 -0.915637 -0.990061 -0.487106 0.539048 -0.687124
-0.269831 -1.000000 -0.819533 -0.434523 -0.722953 -0.537095
-0.255954 -0.915637 -0.777384 -0.523667 0.493118 -0.694693
-0.738069 -1.000000 -0.805197 -0.407147 -0.407361 -0.817469
-0.700110 -0.915637 -0.763786 -0.328929 0.570055 -0.752861
-1.028820 -1.000000 -0.492077 -0.852168 -0.395550 -0.342509
-0.975908 -0.915637 -0.466769 -0.741203 0.606250 -0.288186
-0.914375 -0.836715 0.457160 -0.519028 0.814386 0.259499
-0.596332 -0.836715 0.695693 -0.193213 0.787347 0.585406
-0.281640 -0.836715 0.711405 -0.280343 0.837031 0.469802
-0.129684 -0.836715 0.946246 -0.336314 0.776177 0.533311
0.132785 -0.836715 0.946246 0.400891 0.759178 0.512711
0.243299 -0.836715 0.704499 0.324534 0.832698 0.448592
0.616210 -0.836715 0.695693 0.211066 0.786157 0.580828
0.874621 -0.836715 0.457160 0.539323 0.810144 0.229713
0.874622 -0.836715 -0.417461 0.558916 0.814325 -0.156255
0.695722 -0.836715 -0.695750 0.265297 0.790887 -0.551439
0.204692 -0.836715 -0.697713 0.340709 0.823664 -0.453291
0.112726 -0.836715 -0.912304 0.432752 0.743461 -0.509842
-0.163177 -0.836715 -0.927635 -0.409284 0.754265 -0.513352
-0.239815 -0.836715 -0.728369 -0.343883 0.835963 -0.427625
-0.655967 -0.836715 -0.715628 -0.228309 0.794763 -0.562304
-0.914375 -0.836715 -0.437339 -0.535966 0.819025 -0.204718
-0.837458 -0.815192 0.418704 -0.508255 0.822840 0.254128
-0.546169 -0.815192 0.637172 -0.213782 0.761254 0.612171
-0.257949 -0.815192 0.651562 -0.390728 0.632313 0.668905
-0.118775 -0.815192 0.866648 -0.309976 0.796808 0.518632
0.121616 -0.815192 0.866648 0.365703 0.794427 0.484878
0.222833 -0.815192 0.645237 0.441725 0.614185 0.653920
0.564375 -0.815192 0.637172 0.227546 0.775170 0.589312
0.801048 -0.815192 0.418704 0.540208 0.808283 0.234107
0.801049 -0.815192 -0.382344 0.597247 0.783044 -0.173437
0.637198 -0.815192 -0.637224 0.266671 0.810327 -0.521744
0.187474 -0.815192 -0.639022 0.448408 0.604663 -0.658223
0.103244 -0.815192 -0.835562 0.405774 0.773156 -0.487350
-0.149450 -0.815192 -0.849603 -0.368755 0.802484 -0.469039
-0.219642 -0.815192 -0.667099 -0.466475 0.614490 -0.636189
-0.600787 -0.815192 -0.655430 -0.243477 0.790796 -0.561541
-0.837458 -0.815192 -0.400550 -0.550188 0.807031 -0.214331
-0.814383 -0.750619 0.407167 -0.630116 0.709677 0.315043
-0.531120 -0.750619 0.619615 -0.233863 0.700461 0.674245
-0.250841 -0.750619 0.633609 -0.305277 0.801324 0.514420
-0.115502 -0.750619 0.842769 -0.368084 0.681356 0.632649
0.118265 -0.750619 0.842769 0.427229 0.667501 0.609821
0.216693 -0.750619 0.627458 0.344096 0.805353 0.482650
0.548824 -0.750619 0.619615 0.258461 0.695608 0.670309
0.778976 -0.750619 0.407167 0.646992 0.709342 0.279611
0.778977 -0.750619 -0.371809 0.666097 0.720969 -0.191015
0.619641 -0.750619 -0.619666 0.332072 0.691244 -0.641774
0.182308 -0.750619 -0.621414 0.356517 0.799799 -0.482864
0.100399 -0.750619 -0.812539 0.455794 0.658193 -0.599170
-0.145332 -0.750619 -0.826193 -0.433485 0.660939 -0.612537
-0.213590 -0.750619 -0.648718 -0.362926 0.809961 -0.460646
-0.584233 -0.750619 -0.637370 -0.282968 0.699942 -0.655690
-0.814383 -0.750619 -0.389513 -0.648152 0.718863 -0.251106
-0.514410 -0.688772 0.257190 -0.246559 0.961241 0.123264
-0.335485 -0.688772 0.391383 -0.113010 0.941069 0.318705
-0.158446 -0.688772 0.400223 -0.236183 0.896207 0.375469
-0.072958 -0.688772 0.532340 -0.164190 0.949278 0.268075
0.074703 -0.688772 0.532340 0.202429 0.945524 0.254860
0.136875 -0.688772 0.396338 0.292947 0.881375 0.370556
0.346668 -0.688772 0.391383 0.118290 0.944975 0.304971
0.492045 -0.688772 0.257190 0.265603 0.957183 0.114902
0.492045 -0.688772 -0.234856 0.295083 0.951537 -0.086245
0.391400 -0.688772 -0.391416 0.132542 0.955016 -0.265267
0.115156 -0.688772 -0.392520 0.313883 0.870846 -0.378246
0.063418 -0.688772 -0.513245 0.230567 0.936521 -0.264016
-0.091800 -0.688772 -0.521870 -0.208075 0.946318 -0.247230
-0.134916 -0.688772 -0.409766 -0.317057 0.880032 -0.353557
-0.369034 -0.688772 -0.402599 -0.122868 0.950743 -0.284524
-0.514410 -0.688772 -0.246038 -0.266274 0.958281 -0.103641
-0.294883 -0.569321 0.147433 -0.633717 0.705649 0.316843
-0.192315 -0.569321 0.224359 -0.248604 0.628193 0.737236
-0.090828 -0.569321 0.229426 -0.426984 0.516373 0.742302
-0.041823 -0.569321 0.305162 -0.395398 0.660054 0.638691
0.042823 -0.569321 0.305162 0.467422 0.648610 0.600635
0.078463 -0.569321 0.227199 0.475570 0.499252 0.724265
0.198726 -0.569321 0.224359 0.267403 0.642109 0.718406
0.282063 -0.569321 0.147433 0.666829 0.687918 0.286477
0.282063 -0.569321 -0.134630 0.721152 0.661580 -0.205420
0.224368 -0.569321 -0.224377 0.323985 0.681509 -0.656148
0.066013 -0.569321 -0.225011 0.479629 0.489120 -0.728477
0.036354 -0.569321 -0.294216 0.510147 0.619098 -0.597003
-0.052624 -0.569321 -0.299160 -0.473373 0.655507 -0.588366
-0.077340 -0.569321 -0.234897 -0.499832 0.501450 -0.706168
-0.211548 -0.569321 -0.230788 -0.289254 0.661794 -0.691610
-0.294883 -0.569321 -0.141041 -0.675741 0.689413 -0.260811
-0.268278 -0.463632 0.134131 -0.757378 -0.531907 0.378674
-0.174964 -0.463632 0.204117 -0.266884 -0.470321 0.841151
-0.082634 -0.463632 0.208727 -0.454878 -0.360546 0.814264
-0.038049 -0.463632 0.277629 -0.472274 -0.509323 0.719382
0.038959 -0.463632 0.277629 0.552141 -0.505997 0.662618
0.071384 -0.463632 0.206700 0.494644 -0.351177 0.794946
0.180796 -0.463632 0.204117 0.288675 -0.484664 0.825678
0.256614 -0.463632 0.134131 0.788873 -0.515610 0.334361
0.256615 -0.463632 -0.122483 0.843532 -0.484054 -0.232582
0.204125 -0.463632 -0.204133 0.360698 -0.522935 -0.772271
0.060057 -0.463632 -0.204709 0.492508 -0.347301 -0.797967
0.033074 -0.463632 -0.267671 0.592303 -0.483169 -0.644704
-0.047876 -0.463632 -0.272169 -0.557115 -0.518143 -0.648885
-0.070362 -0.463632 -0.213704 -0.516709 -0.350963 -0.780908
-0.192461 -0.463632 -0.209966 -0.317881 -0.498215 -0.806665
-0.268278 -0.463632 -0.128315 -0.804559 -0.508927 -0.305979
-0.345194 -0.427759 0.172587 -0.626423 -0.713767 0.313211
-0.225127 -0.427759 0.262637 -0.240730 -0.680105 0.692434
-0.106325 -0.427759 0.268569 -0.357585 -0.720695 0.593890
-0.048958 -0.427759 0.357226 -0.374767 -0.672750 0.637898
0.050129 -0.427759 0.357226 0.436995 -0.657643 0.613605
0.091850 -0.427759 0.265961 0.414838 -0.710288 0.568651
0.232631 -0.427759 0.262637 0.263436 -0.680197 0.684011
0.330186 -0.427759 0.172587 0.648427 -0.707938 0.279855
0.330186 -0.427759 -0.157599 0.675466 -0.711417 -0.193823
0.262648 -0.427759 -0.262659 0.330760 -0.688498 -0.645405
0.077275 -0.427759 -0.263400 0.432600 -0.696280 -0.572710
0.042556 -0.427759 -0.344412 0.468734 -0.640828 -0.607929
-0.061602 -0.427759 -0.350200 -0.443464 -0.652852 -0.614063
-0.090535 -0.427759 -0.274973 -0.440992 -0.713584 -0.544298
-0.247640 -0.427759 -0.270163 -0.285409 -0.691214 -0.663869
-0.345194 -0.427759 -0.165104 -0.648732 -0.718375 -0.251076
-0.375961 -0.370361 0.187969 -0.459243 -0.858089 0.229621
-0.245192 -0.370361 0.286046 -0.198798 -0.801935 0.563311
-0.115801 -0.370361 0.292506 -0.371624 -0.683798 0.627918
-0.053322 -0.370361 0.389065 -0.283639 -0.832026 0.476699
0.054597 -0.370361 0.389065 0.337046 -0.828242 0.447615
0.100037 -0.370361 0.289666 0.425703 -0.664174 0.614490
0.253365 -0.370361 0.286046 0.210791 -0.814173 0.540971
0.359615 -0.370361 0.187969 0.490036 -0.845332 0.212714
0.359615 -0.370361 -0.171646 0.543413 -0.824305 -0.158666
0.286058 -0.370361 -0.286069 0.243995 -0.845119 -0.475600
0.084163 -0.370361 -0.286876 0.435224 -0.653127 -0.619617
0.046349 -0.370361 -0.375109 0.376232 -0.808039 -0.453291
-0.067093 -0.370361 -0.381413 -0.341014 -0.834315 -0.433119
-0.098604 -0.370361 -0.299481 -0.451064 -0.664571 -0.595691
-0.269712 -0.370361 -0.294242 -0.223884 -0.828913 -0.512589
-0.375961 -0.370361 -0.179819 -0.497452 -0.845454 -0.194128
-0.683626 -0.284265 0.341792 -0.649129 -0.687918 0.324564
-0.445843 -0.284265 0.520130 -0.244514 -0.674429 0.696616
-0.210566 -0.284265 0.531877 -0.331309 -0.764153 0.553392
-0.096957 -0.284265 0.707454 -0.375042 -0.657918 0.653035
0.099276 -0.284265 0.707454 0.434095 -0.644368 0.629536
0.181901 -0.284265 0.526713 0.378338 -0.764336 0.522111
0.460705 -0.284265 0.520130 0.269692 -0.670553 0.691061
0.653904 -0.284265 0.341792 0.667074 -0.686605 0.289010
0.653905 -0.284265 -0.312112 0.689047 -0.696921 -0.198767
0.520152 -0.284265 -0.520172 0.344615 -0.668630 -0.658895
0.153037 -0.284265 -0.521640 0.393597 -0.755913 -0.523118
0.084279 -0.284265 -0.682078 0.463179 -0.633900 -0.619343
-0.121998 -0.284265 -0.693540 -0.440077 -0.638112 -0.631733
-0.179296 -0.284265 -0.544560 -0.400891 -0.768456 -0.498733
-0.490429 -0.284265 -0.535034 -0.294656 -0.676229 -0.675161
-0.683626 -0.284265 -0.326973 -0.668905 -0.696402 -0.259835
-0.822076 0.117518 0.411013 -0.894131 0.024751 0.447066
-0.536137 0.117518 0.625468 -0.359539 0.022889 0.932829
-0.253211 0.117518 0.639594 -0.511948 0.023713 0.858669
-0.116593 0.117518 0.850729 -0.447645 0.022889 0.893887
0.119382 0.117518 0.850729 0.502091 0.022431 0.864498
0.218740 0.117518 0.633385 0.573656 0.022797 0.818751
0.554008 0.117518 0.625468 0.397107 0.023011 0.917478
0.786334 0.117518 0.411013 0.913419 0.024384 0.406201
0.786335 0.117518 -0.375321 0.956420 0.024567 -0.290872
0.625494 0.117518 -0.625519 0.504562 0.023621 -0.863033
0.184030 0.117518 -0.627284 0.580157 0.021912 -0.814173
0.101347 0.117518 -0.820214 0.533403 0.021607 -0.845576
-0.146705 0.117518 -0.833997 -0.505203 0.022187 -0.862697
-0.215608 0.117518 -0.654845 -0.607868 0.023041 -0.793695
-0.589752 0.117518 -0.643390 -0.436110 0.023682 -0.899564
-0.822076 0.117518 -0.393193 -0.928434 0.024995 -0.370647
-0.799000 0.174915 0.399476 -0.893368 0.048402 0.446669
-0.521087 0.174915 0.607911 -0.316538 0.039338 0.947752
-0.246103 0.174915 0.621641 -0.490036 0.031556 0.871120
-0.113320 0.174915 0.826850 -0.515793 0.041932 0.855647
0.116031 0.174915 0.826850 0.589648 0.040498 0.806635
0.212600 0.174915 0.615606 0.532853 0.030244 0.845637
0.538457 0.174915 0.607911 0.348064 0.040590 0.936583
0.764262 0.174915 0.399476 0.917966 0.046236 0.393933
0.764263 0.174915 -0.364786 0.961608 0.043672 -0.270852
0.607937 0.174915 -0.607961 0.448469 0.044649 -0.892666
0.178864 0.174915 -0.609676 0.531114 0.029389 -0.846767
0.098502 0.174915 -0.797191 0.623127 0.037507 -0.781182
-0.142587 0.174915 -0.810587 -0.593005 0.041108 -0.804132
-0.209556 0.174915 -0.636464 -0.557024 0.030610 -0.829920
-0.573198 0.174915 -0.625331 -0.385113 0.042787 -0.921873
-0.799000 0.174915 -0.382156 -0.932310 0.046815 -0.358562
-1.014370 0.863685 0.507152 -0.623737 -0.716697 0.311869
-0.661544 0.863685 0.771770 -0.246559 -0.639149 0.728446
-0.312439 0.863685 0.789200 -0.423719 -0.530778 0.733970
-0.143865 0.863685 1.049720 -0.390271 -0.669271 0.632221
0.147306 0.863685 1.049720 0.461959 -0.656911 0.595843
0.269905 0.863685 0.781539 0.473434 -0.512864 0.716086
0.683595 0.863685 0.771770 0.265114 -0.652669 0.709708
0.970264 0.863685 0.507152 0.656789 -0.699210 0.282327
0.970266 0.863685 -0.463112 0.710166 -0.674215 -0.202612
0.771802 0.863685 -0.771833 0.320475 -0.691275 -0.647603
0.227076 0.863685 -0.774011 0.478347 -0.501968 -0.720511
0.125053 0.863685 -1.012070 0.504593 -0.627094 -0.593371
-0.181021 0.863685 -1.029080 -0.468184 -0.663015 -0.584124
-0.266040 0.863685 -0.808019 -0.498001 -0.515336 -0.697409
-0.727700 0.863685 -0.793885 -0.286203 -0.672628 -0.682333
-1.014370 0.863685 -0.485164 -0.664663 -0.701651 -0.256661
-1.191270 0.964127 0.595599 -0.893551 0.043519 0.446760
-0.776916 0.964127 0.906366 -0.384381 0.051485 0.921720
-0.366928 0.964127 0.926836 -0.546464 0.088931 0.832728
-0.168955 0.964127 1.232790 -0.413862 0.046419 0.909116
0.172996 0.964127 1.232790 0.459975 0.045839 0.886715
0.316976 0.964127 0.917838 0.646321 0.096438 0.756920
0.802814 0.964127 0.906366 0.423139 0.049532 0.904691
1.139480 0.964127 0.595599 0.910245 0.045442 0.411542
1.139480 0.964127 -0.543878 0.952239 0.048616 -0.301431
0.906404 0.964127 -0.906440 0.528550 0.045015 -0.847682
0.266678 0.964127 -0.908998 0.670339 0.098117 -0.735527
0.146862 0.964127 -1.188570 0.486312 0.047761 -0.872463
-0.212590 0.964127 -1.208550 -0.464278 0.045198 -0.884518
-0.312437 0.964127 -0.948937 -0.698050 0.097598 -0.709311
-0.854610 0.964127 -0.932338 -0.460738 0.047304 -0.886258
-1.191270 0.964127 -0.569776 -0.925535 0.045289 -0.375927
-1.106660 1.000000 0.553297 -0.113437 0.991913 0.056703
-0.721736 1.000000 0.841991 -0.011963 0.992645 0.120426
-0.340867 1.000000 0.861008 0.063143 0.995911 -0.064455
-0.156955 1.000000 1.145230 -0.131962 0.984069 0.118839
0.160709 1.000000 1.145230 0.187139 0.974944 0.120060
0.294463 1.000000 0.852649 -0.110355 0.991211 -0.072848
0.745794 1.000000 0.841991 0.016602 0.990722 0.134678
1.058550 1.000000 0.553297 0.113804 0.992615 0.041505
1.058550 1.000000 -0.505249 0.097140 0.995117 -0.016785
0.842027 1.000000 -0.842060 0.035340 0.987213 -0.155309
0.247737 1.000000 -0.844436 -0.132969 0.988159 0.076144
0.136431 1.000000 -1.104150 0.211005 0.970458 -0.116855
-0.197491 1.000000 -1.122710 -0.201941 0.971374 -0.125004
-0.290246 1.000000 -0.881539 0.131932 0.988800 0.069521
-0.793911 1.000000 -0.866118 -0.022858 0.990448 -0.135777
-1.106660 1.000000 -0.529308 -0.105319 0.993835 -0.034028
-0.875917 0.921086 0.437932 0.538285 0.798608 -0.269143
-0.571250 0.921086 0.666432 0.222144 0.732322 -0.643666
-0.269795 0.921086 0.681484 0.399609 0.607135 -0.686789
-0.124229 0.921086 0.906447 0.332743 0.767022 -0.548540
0.127200 0.921086 0.906447 -0.394208 0.761773 -0.514054
0.233066 0.921086 0.674868 -0.450087 0.589038 -0.671133
0.590292 0.921086 0.666432 -0.237037 0.746361 -0.621876
0.837835 0.921086 0.437932 -0.570788 0.783166 -0.246620
0.837835 0.921086 -0.399903 -0.627155 0.757530 0.181005
0.666460 0.921086 -0.666487 -0.280129 0.782891 0.555467
0.196083 0.921086 -0.668367 -0.456221 0.579150 0.675558
0.107985 0.921086 -0.873933 -0.435987 0.737632 0.515519
-0.156313 0.921086 -0.888619 0.398572 0.769463 0.499008
-0.229729 0.921086 -0.697734 0.474715 0.589892 0.653157
-0.628377 0.921086 -0.685529 0.254280 0.763207 0.593951
-0.875917 0.921086 -0.418945 0.580187 0.782647 0.225318
-0.522101 -0.119247 0.261035 0.636250 0.702811 -0.318125
-0.340501 -0.119247 0.397235 0.236549 0.694327 -0.679617
-0.160815 -0.119247 0.406207 0.308603 0.796686 -0.519608
-0.074048 -0.119247 0.540300 0.369671 0.675039 -0.638447
0.075819 -0.119247 0.540300 -0.428571 0.661397 -0.615497
0.138922 -0.119247 0.402264 -0.347911 0.800867 -0.487350
0.351851 -0.119247 0.397235 -0.261483 0.689352 -0.675527
0.499402 -0.119247 0.261035 -0.653035 0.702628 -0.282479
0.499403 -0.119247 -0.238367 -0.672414 0.714499 0.193152
0.397252 -0.119247 -0.397268 -0.336009 0.684713 0.646718
0.116878 -0.119247 -0.398389 -0.360454 0.795282 0.487411
0.064366 -0.119247 -0.520919 -0.457045 0.652364 0.604572
-0.093173 -0.119247 -0.529673 0.434706 0.654805 0.618213
-0.136933 -0.119247 -0.415893 0.367077 0.805475 0.465163
-0.374552 -0.119247 -0.408618 0.286386 0.693533 0.661000
-0.522101 -0.119247 -0.249717 0.654530 0.712119 0.253822
-0.006762 -0.226867 0.003381 0.106449 0.992889 -0.053224
-0.004410 -0.226867 0.005145 0.034211 0.990875 -0.130192
-0.002083 -0.226867 0.005261 0.040803 0.996277 -0.075777
-0.000959 -0.226867 0.006998 0.095737 0.988556 -0.116428
0.000982 -0.226867 0.006998 -0.130894 0.984710 -0.114750
0.001799 -0.226867 0.005210 -0.041414 0.996582 -0.071139
0.004557 -0.226867 0.005145 -0.037172 0.990539 -0.132054
0.006468 -0.226867 0.003381 -0.111820 0.992676 -0.045320
0.006468 -0.226867 -0.003087 -0.113163 0.993133 0.028596
0.005145 -0.226867 -0.005146 -0.047426 0.990448 0.129429
0.001514 -0.226867 -0.005160 -0.041078 0.996521 0.072298
0.000834 -0.226867 -0.006747 -0.150426 0.981597 0.117496
-0.001207 -0.226867 -0.006861 0.139805 0.983490 0.114658
-0.001774 -0.226867 -0.005387 0.040956 0.996887 0.067019
-0.004851 -0.226867 -0.005293 0.040437 0.991119 0.126499
-0.006762 -0.226867 -0.003234 0.108371 0.993316 0.039460
3 0 1 2
3 2 1 3
3 1 4 3
3 3 4 5
3 4 6 5
3 5 6 7
3 6 8 7
3 7 8 9
3 8 10 9
3 9 10 11
3 10 12 11
3 11 12 13
3 12 14 13
3 13 14 15
3 14 16 15
3 15 16 17
3 16 18 17
3 17 18 19
3 18 20 19
3 19 20 21
3 20 22 21
3 21 22 23
3 22 24 23
3 23 24 25
3 24 26 25
3 25 26 27
3 26 28 27
3 27 28 29
3 28 30 29
3 29 30 31
3 30 0 31
3 31 0 2
3 2 3 32
3 32 3 33
3 3 5 33
3 33 5 34
3 5 7 34
3 34 7 35
3 7 9 35
3 35 9 36
3 9 11 36
3 36 11 37
3 11 13 37
3 37 13 38
3 13 15 38
3 38 15 39
3 15 17 39
3 39 17 40
3 17 19 40
3 40 19 41
3 19 21 41
3 41 21 42
3 21 23 42
3 42 23 43
3 23 25 43
3 43 25 44
3 25 27 44
3 44 27 45
3 27 29 45
3 45 29 46
3 29 31 46
3 46 31 47
3 31 2 47
3 47 2 32
3 32 33 48
3 48 33 49
3 33 34 49
3 49 34 50
3 34 35 50
3 50 35 51
3 35 36 51
3 51 36 52
3 36 37 52
3 52 37 53
3 37 38 53
3 53 38 54
3 38 39 54
3 54 39 55
3 39 40 55
3 55 40 56
3 40 41 56
3 56 41 57
3 41 42 57
3 57 42 58
3 42 43 58
3 58 43 59
3 43 44 59
3 59 44 60
3 44 45 60
3 60 45 61
3 45 46 61
3 61 46 62
3 46 47 62
3 62 47 63
3 47 32 63
3 63 32 48
3 48 49 64
3 64 49 65
3 49 50 65
3 65 50 66
3 50 51 66
3 66 51 67
3 51 52 67
3 67 52 68
3 52 53 68
3 68 53 69
3 53 54 69
3 69 54 70
3 54 55 70
3 70 55 71
3 55 56 71
3 71 56 72
3 56 57 72
3 72 57 73
3 57 58 73
3 73 58 74
3 58 59 74
3 74 59 75
3 59 60 75
3 75 60 76
3 60 61 76
3 76 61 77
3 61 62 77
3 77 62 78
3 62 63 78
3 78 63 79
3 63 48 79
3 79 48 64
3 64 65 80
3 80 65 81
3 65 66 81
3 81 66 82
3 66 67 82
3 82 67 83
3 67 68 83
3 83 68 84
3 68 69 84
3 84 69 85
3 69 70 85
3 85 70 86
3 70 71 86
3 86 71 87
3 71 72 87
3 87 72 88
3 72 73 88
3 88 73 89
3 73 74 89
3 89 74 90
3 74 75 90
3 90 75 91
3 75 76 91
3 91 76 92
3 76 77 92
3 92 77 93
3 77 78 93
3 93 78 94
3 78 79 94
3 94 79 95
3 79 64 95
3 95 64 80
3 80 81 96
3 96 81 97
3 81 82 97
3 97 82 98
3 82 83 98
3 98 83 99
3 83 84 99
3 99 84 100
3 84 85 100
3 100 85 101
3 85 86 101
3 101 86 102
3 86 87 102
3 102 87 103
3 87 88 103
3 103 88 104
3 88 89 104
3 104 89 105
3 89 90 105
3 105 90 106
3 90 91 106
3 106 91 107
3 91 92 107
3 107 92 108
3 92 93 108
3 108 93 109
3 93 94 109
3 109 94 110
3 94 95 110
3 110 95 111
3 95 80 111
3 111 80 96
3 96 97 112
3 112 97 113
3 97 98 113
3 113 98 114
3 98 99 114
3 114 99 115
3 99 100 115
3 115 100 116
3 100 101 116
3 116 101 117
3 101 102 117
3 117 102 118
3 102 103 118
3 118 103 119
3 103 104 119
3 119 104 120
3 104 105 120
3 120 105 121
3 105 106 121
3 121 106 122
3 106 107 122
3 122 107 123
3 107 108 123
3 123 108 124
3 108 109 124
3 124 109 125
3 109 110 125
3 125 110 126
3 110 111 126
3 126 111 127
3 111 96 127
3 127 96 112
3 112 113 128
3 128 113 129
3 113 114 129
3 129 114 130
3 114 115 130
3 130 115 131
3 115 116 131
3 131 116 132
3 116 117 132
3 132 117 133
3 117 118 133
3 133 118 134
3 118 119 134
3 134 119 135
3 119 120 135
3 135 120 136
3 120 121 136
3 136 121 137
3 121 122 137
3 137 122 138
3 122 123 138
3 138 123 139
3 123 124 139
3 139 124 140
3 124 125 140
3 140 125 141
3 125 126 141
3 141 126 142
3 126 127 142
3 142 127 143
3 127 112 143
3 143 112 128
3 128 129 144
3 144 129 145
3 129 130 145
3 145 130 146
3 130 131 146
3 146 131 147
3 131 132 147
3 147 132 148
3 132 133 148
3 148 133 149
3 133 134 149
3 149 134 150
3 134 135 150
3 150 135 151
3 135 136 151
3 151 136 152
3 136 137 152
3 152 137 153
3 137 138 153
3 153 138 154
3 138 139 154
3 154 139 155
3 139 140 155
3 155 140 156
3 140 141 156
3 156 141 157
3 141 142 157
3 157 142 158
3 142 143 158
3 158 143 159
3 143 128 159
3 159 128 144
3 144 145 160
3 160 145 161
3 145 146 161
3 161 146 162
3 146 147 162
3 162 147 163
3 147 148 163
3 163 148 164
3 148 149 164
3 164 149 165
3 149 150 165
3 165 150 166
3 150 151 166
3 166 151 167
3 151 152 167
3 167 152 168
3 152 153 168
3 168 153 169
3 153 154 169
3 169 154 170
3 154 155 170
3 170 155 171
3 155 156 171
3 171 156 172
3 156 157 172
3 172 157 173
3 157 158 173
3 173 158 174
3 158 159 174
3 174 159 175
3 159 144 175
3 175 144 160
3 160 161 176
3 176 161 177
3 161 162 177
3 177 162 178
3 162 163 178
3 178 163 179
3 163 164 179
3 179 164 180
3 164 165 180
3 180 165 181
3 165 166 181
3 181 166 182
3 166 167 182
3 182 167 183
3 167 168 183
3 183 168 184
3 168 169 184
3 184 169 185
3 169 170 185
3 185 170 186
3 170 171 186
3 186 171 187
3 171 172 187
3 187 172 188
3 172 173 188
3 188 173 189
3 173 174 189
3 189 174 190
3 174 175 190
3 190 175 191
3 175 160 191
3 191 160 176
3 176 177 192
3 192 177 193
3 177 178 193
3 193 178 194
3 178 179 194
3 194 179 195
3 179 180 195
3 195 180 196
3 180 181 196
3 196 181 197
3 181 182 197
3 197 182 198
3 182 183 198
3 198 183 199
3 183 184 199
3 199 184 200
3 184 185 200
3 200 185 201
3 185 186 201
3 201 186 202
3 186 187 202
3 202 187 203
3 187 188 203
3 203 188 204
3 188 189 204
3 204 189 205
3 189 190 205
3 205 190 206
3 190 191 206
3 206 191 207
3 191 176 207
3 207 176 192
3 192 193 208
3 208 193 209
3 193 194 209
3 209 194 210
3 194 195 210
3 210 195 211
3 195 196 211
3 211 196 212
3 196 197 212
3 212 197 213
3 197 198 213
3 213 198 214
3 198 199 214
3 214 199 215
3 199 200 215
3 215 200 216
3 200 201 216
3 216 201 217
3 201 202 217
3 217 202 218
3 202 203 218
3 218 203 219
3 203 204 219
3 219 204 220
3 204 205 220
3 220 205 221
3 205 206 221
3 221 206 222
3 206 207 222
3 222 207 223
3 207 192 223
3 223 192 208
3 208 209 224
3 224 209 225
3 209 210 225
3 225 210 226
3 210 211 226
3 226 211 227
3 211 212 227
3 227 212 228
3 212 213 228
3 228 213 229
3 213 214 229
3 229 214 230
3 214 215 230
3 230 215 231
3 215 216 231
3 231 216 232
3 216 217 232
3 232 217 233
3 217 218 233
3 233 218 234
3 218 219 234
3 234 219 235
3 219 220 235
3 235 220 236
3 220 221 236
3 236 221 237
3 221 222 237
3 237 222 238
3 222 223 238
3 238 223 239
3 223 208 239
3 239 208 224
3 224 225 240
3 240 225 241
3 225 226 241
3 241 226 242
3 226 227 242
3 242 227 243
3 227 228 243
3 243 228 244
3 228 229 244
3 244 229 245
3 229 230 245
3 245 230 246
3 230 231 246
3 246 231 247
3 231 232 247
3 247 232 248
3 232 233 248
3 248 233 249
3 233 234 249
3 249 234 250
3 234 235 250
3 250 235 251
3 235 236 251
3 251 236 252
3 236 237 252
3 252 237 253
3 237 238 253
3 253 238 254
3 238 239 254
3 254 239 255
3 239 224 255
3 255 224 240
3 240 241 256
3 256 241 257
3 241 242 257
3 257 242 258
3 242 243 258
3 258 243 259
3 243 244 259
3 259 244 260
3 244 245 260
3 260 245 261
3 245 246 261
3 261 246 262
3 246 247 262
3 262 247 263
3 247 248 263
3 263 248 264
3 248 249 264
3 264 249 265
3 249 250 265
3 265 250 266
3 250 251 266
3 266 251 267
3 251 252 267
3 267 252 268
3 252 253 268
3 268 253 269
3 253 254 269
3 269 254 270
3 254 255 270
3 270 255 271
3 255 240 271
3 271 240 256
3 256 257 272
3 272 257 273
3 257 258 273
3 273 258 274
3 258 259 274
3 274 259 275
3 259 260 275
3 275 260 276
3 260 261 276
3 276 261 277
3 261 262 277
3 277 262 278
3 262 263 278
3 278 263 279
3 263 264 279
3 279 264 280
3 264 265 280
3 280 265 281
3 265 266 281
3 281 266 282
3 266 267 282
3 282 267 283
3 267 268 283
3 283 268 284
3 268 269 284
3 284 269 285
3 269 270 285
3 285 270 286
3 270 271 286
3 286 271 287
3 271 256 287
3 287 256 272
3 272 273 288
3 288 273 289
3 273 274 289
3 289 274 290
3 274 275 290
3 290 275 291
3 275 276 291
3 291 276 292
3 276 277 292
3 292 277 293
3 277 278 293
3 293 278 294
3 278 279 294
3 294 279 295
3 279 280 295
3 295 280 296
3 280 281 296
3 296 281 297
3 281 282 297
3 297 282 298
3 282 283 298
3 298 283 299
3 283 284 299
3 299 284 300
3 284 285 300
3 300 285 301
3 285 286 301
3 301 286 302
3 286 287 302
3 302 287 303
3 287 272 303
3 303 272 288
3 26 22 20
3 30 28 26
3 30 20 18
3 18 0 30
3 30 26 20
3 26 24 22
3 18 16 14
3 18 14 12
3 18 12 10
3 18 10 8
3 18 8 6
3 18 6 4
3 18 4 1
3 18 1 0
3 298 299 301
3 301 302 303
3 297 298 303
3 303 288 297
3 298 301 303
3 299 300 301
3 295 296 297
3 294 295 297
3 293 294 297
3 292 293 297
3 291 292 297
3 290 291 297
3 289 290 297
3 288 289 297
